<?xml version="1.0" encoding="utf-8"?>
<!-- Generator: Adobe Adobe Illustrator 24.2.0, SVG Export Plug-In . SVG Version: 6.00 Build 0)  -->
<svg version="1.1" id="Layer_1" xmlns="http://www.w3.org/2000/svg" xmlns:xlink="http://www.w3.org/1999/xlink" x="0px" y="0px"
	 width="1920px" height="1080px" viewBox="0 0 1920 1080" style="enable-background:new 0 0 1920 1080;" xml:space="preserve">
<style type="text/css">
	.st0{fill:none;stroke:#F5F5DC;stroke-width:12;stroke-linecap:round;stroke-linejoin:round;stroke-miterlimit:10;}
</style>
<path class="st0" d="M368.12,316.25c-23.88,8.1-31.89,37.48-34.34,62.58c-3.27,33.4-3.06,67.14,0.61,100.5
	c2.63,23.82,7.02,47.59,6.21,71.54c-1.19,35.1-13.94,69.71-35.8,97.19c-9.97,12.53-22.38,23.96-37.74,28.46
	c-15.36,4.5-34.05,0.44-43.04-12.8c-3.8-5.59-5.64-12.35-6.01-19.09c-0.56-10.05,2.43-20.79,10.03-27.39
	c7.6-6.6,20.29-7.59,27.48-0.54c7.18,7.06,4.91,21.73-4.73,24.63"/>
<path class="st0" d="M285.5,322.45c4-4.29,8-8.59,11.99-12.88c16.65,9.59,14.73,37.9-1.76,47.77c-16.49,9.87-39.88,1.58-49.63-14.98
	c-9.75-16.56-7.27-38.4,2.7-54.83c9.97-16.43,26.33-28.08,43.64-36.42c34.97-16.87,76.43-21.67,113.2-9.21s67.77,43.26,76.66,81.05
	c7.18,30.5,0.1,62.66-11.02,91.96c-17.28,45.53-53.99,92.55-102.6,89.64c9.26-12.56,21.71-25.29,37.31-25.21
	c17.93,0.08,31.42,17.68,34.95,35.25c3.53,17.58,0.1,35.72,0.18,53.65c0.08,17.93,4.95,37.72,19.9,47.61
	c23.56,15.59,55.05-2.54,73.78-23.68c18.73-21.15,36.07-47.69,63.8-53.09c-34.17,18.5-58.02,54.82-61.43,93.53
	c21.25,7.68,43.93-10.23,53.48-30.7c9.55-20.47,11.24-43.9,20.62-64.46c-10.29,22.01-20.84,45.93-16.13,69.76
	c4.71,23.84,32.43,44.16,53.51,32.07c11.27-6.46,16.79-19.5,20.98-31.79c7.86-23.07,13.74-46.82,17.54-70.89
	c-6.32,25.42-12.64,50.83-18.96,76.25c-0.97,3.89-1.9,8.16-0.13,11.76c2.38,4.84,8.58,6.33,13.97,6.24
	c20.41-0.33,38.26-15.41,47.82-33.44s12.4-38.77,15.08-59c-7.92,44.22-15.85,88.47-26.61,132.09
	c-11.48,46.53-28.46,95.55-67.4,123.49c-7.69,5.52-16.61,10.19-26.07,9.88c-9.46-0.31-19.21-7.14-19.94-16.57
	c-0.41-5.37,2.01-10.52,4.67-15.2c15.42-27.2,40.03-47.72,62.8-69.16c46.53-43.83,87.22-93.84,120.66-148.32
	c6.53-10.65,15.62-22.97,28.04-21.56c4.64,34.16,1.18,69.4-10.02,102c9.55-30.6,24.04-59.65,42.76-85.67
	c5.48-7.63,15.12-15.8,23.04-10.75c6.83,4.35,5.56,14.52,3.46,22.34c-5.15,19.19-10.3,38.38-15.45,57.56
	c6.32-30.69,22.04-59.39,44.5-81.25c5.43-5.29,14.32-10.24,19.87-5.07c3.3,3.07,3.34,8.2,3.04,12.69
	c-1.63,24.08-6.62,47.94-14.78,70.65c26.15,8.5,55.48-1.36,76.93-18.57c21.45-17.21,36.55-40.9,51.25-64.13
	c-17.72,9.49-32.29,24.75-40.96,42.88c-4.02,8.4-6.7,18.63-2.16,26.76c4.83,8.63,16.41,11.53,26.04,9.24
	c9.62-2.28,17.73-8.57,25.44-14.77c11.17-8.97,22.68-18.71,27.69-32.13s0.69-31.41-12.67-36.58c-13.35-5.17-30.27,11.99-21.72,23.48
	c8.07,10.83,25.56,4.75,35.63-4.26c10.07-9,20.63-20.95,34.04-19.33c-0.62,29.05-7.03,57.96-18.74,84.55
	c10.6-17.2,21.2-34.4,31.8-51.61c8.63-14.01,25.82-29.88,38.69-19.62c10.9,8.69,4.64,25.83-0.63,38.73
	c-5.27,12.9-4.39,33.28,9.5,34.45c5.59,0.47,10.71-2.9,15.22-6.23c28.06-20.65,53.1-45.39,74.1-73.19
	c-16.33,10.55-29.95,25.26-39.2,42.37c-5.12,9.47-8.34,22.6-0.44,29.92c7.14,6.61,18.63,3.93,27.42-0.23
	c47.77-22.57,74.84-73.28,95.59-121.87c17.96-42.06,33.67-85.08,47.05-128.81c5.03-16.45,5.82-40.4-10.89-44.46
	c-6.08-1.48-12.45,0.7-18.03,3.53c-26.91,13.66-43.25,41.75-54.72,69.67c-14.56,35.44-23.72,73.08-27.09,111.25
	c-2.65,30-1.12,62.27,15.99,87.05s54.3,37.5,78.54,19.62"/>
<path class="st0" d="M1542.19,341.48c26.68,12.31,61.75,1.85,77.33-23.06c2.19-3.51,4.08-7.59,3.28-11.65
	c-1.63-8.19-13.57-10.31-20.36-5.45c-6.79,4.87-9.47,13.56-11.44,21.67c-11.83,48.6-13.77,98.98-20.32,148.58
	c-6.55,49.59-18.36,99.99-47.13,140.91c-6.58,9.35-17.7,19.1-28.04,14.23c-8.02-8.81-2.24-24.39,8.46-29.62
	c10.7-5.23,23.58-2.71,34.61,1.78c11.03,4.5,21.4,10.88,33.03,13.45c24.23,5.35,49.6-7.27,66.17-25.73
	c16.57-18.46,26.08-42.04,35.27-65.08c-16.24,21.54-25.36,48.36-25.59,75.34c-0.06,7.33,0.93,15.52,6.57,20.2
	c9,7.45,22.49,1.02,31.77-6.08c26.97-20.63,49.87-46.57,67.01-75.89c-9.06,15.49-13.96,33.39-14.04,51.34
	c-0.06,12.16,5.59,27.55,17.75,27.38c4.44-0.06,8.5-2.38,12.25-4.75c28.62-18.15,52.17-44.21,67.33-74.52
	c-16.24,17.86-24.43,42.77-21.94,66.78c0.61,5.89,2,12.06,6.1,16.34c7.26,7.59,20.48,6.04,28.7-0.5
	c8.22-6.54,12.67-16.61,16.81-26.26"/>
<path class="st0" d="M1687.36,454.75c-7.79,4.12-14.95,10.4-17.6,18.8s0.6,18.98,8.67,22.51c8.15,3.57,18.02-1.18,23.15-8.45
	c5.14-7.26,6.69-16.39,8.11-25.17c0.27-1.66,0.49-3.52-0.49-4.89c-1.65-2.29-5.18-1.5-7.81-0.48
	C1693.76,460.04,1686.13,463,1687.36,454.75z"/>
</svg>
