<?xml version="1.0" encoding="utf-8"?>
<!-- Generator: Adobe Adobe Illustrator 24.2.0, SVG Export Plug-In . SVG Version: 6.00 Build 0)  -->
<svg version="1.1" id="Layer_1" xmlns="http://www.w3.org/2000/svg" xmlns:xlink="http://www.w3.org/1999/xlink" x="0px" y="0px"
	 width="1920px" height="1080px" viewBox="0 0 1920 1080" style="enable-background:new 0 0 1920 1080;" xml:space="preserve">
<style type="text/css">
	.st0{fill:#F5F5DC;}
	.st1{fill:#FCFCF3;}
	.st2{fill:#FBFBEF;}
	.st3{fill:#F8F8E8;}
	.st4{fill:#FDFDF8;}
	.st5{fill:#FAFAEC;}
	.st6{fill:#F7F7E4;}
</style>
<g>
	<g>
		<path class="st0" d="M854.99,595.98c0.29,0,0.58-0.5,0.87-0.5C855.57,595.48,855.28,595.98,854.99,595.98L854.99,595.98z"/>
	</g>
</g>
<g>
	<g>
		<g>
			<path class="st1" d="M1011.46,757.45c0.17-0.03,0.39-0.07,0.63-0.11c-0.11,0.06-0.22,0.12-0.33,0.17
				c0.7-0.17,1.33-0.31,2.02-0.47c0.49-0.1,0.96-0.2,1.39-0.28c0.78-0.25,0.88-0.3,1.82-0.58c0.41-0.09,0.81-0.18,1.21-0.26
				c-0.17,0.09-0.34,0.18-0.52,0.27c-0.09,0.05-0.18,0.1-0.27,0.14c-0.31,0.09-0.56,0.15-0.86,0.23c0.3-0.03,0.59-0.06,0.89-0.1
				c-0.05,0.03-0.1,0.05-0.15,0.08c-0.3,0.09-0.53,0.17-0.78,0.25c1.04-0.25-0.05,0.07,0.54-0.05c-0.52,0.21-2,0.63-0.88,0.39
				c-0.51,0.14-0.85,0.28-0.96,0.35c1.64-0.36-1.41,0.4,0.22,0.04c-0.82,0.21-1.16,0.39-0.47,0.24c-0.66,0.3-0.97,0.54-0.82,0.64
				c0.04,0.07-0.21,0.28-1.34,0.62c0.13-0.01,0.68-0.16,1.04-0.24c-0.17,0.06-0.03,0.06-0.46,0.16c-0.36,0.09-0.36,0.11-0.41,0.14
				c0.1-0.01,0.44-0.09,0.71-0.16c-2.54,0.83,1.08,0.1-1.51,0.94c1.23-0.3,0.08,0.05,1.35-0.26c0.02,0.07-0.02,0.15,0.01,0.21
				c0.18,0.04-0.53,0.32-0.76,0.47c-0.59,0.19-0.32,0.15,0.26,0.02c-0.18,0.11-0.3,0.2-0.48,0.31c-0.68,0.22-0.8,0.28-0.23,0.2
				c-0.16,0.08-0.32,0.17-0.47,0.24c-0.61,0.23-0.66,0.28,0.17,0.07c-0.03,0.02-0.06,0.03-0.09,0.05c-0.09,0.06-0.12,0.11-0.16,0.16
				c0.02,0.01,0.08,0.01,0.08,0.02c-0.16,0.07-0.39,0.16-0.55,0.22c-0.52,0.16,0.3-0.02,0.53-0.06c-0.15,0.08-0.31,0.16-0.46,0.24
				c-0.6,0.2,0.14,0.04-0.05,0.1c-0.28,0.15-0.56,0.29-0.84,0.44c0.36-0.05,0.25,0.01,0.12,0.07c-0.18,0.05-0.36,0.09-0.54,0.14
				c-0.05,0.03-0.09,0.05-0.14,0.07c0.29-0.03,0.27,0.01,0.66-0.05c-0.04,0.02-0.09,0.05-0.14,0.07c-0.14,0.04-0.22,0.07-0.37,0.12
				c-0.09,0.05-0.19,0.1-0.27,0.14c0.02,0.02,0.01,0.04,0.04,0.06c0.12-0.01,0.23-0.03,0.4-0.06c-0.25,0.07-0.44,0.12-0.63,0.18
				c-0.03,0.03,0.01,0.04,0.04,0.06c-0.09,0.05-0.15,0.08-0.23,0.12c0.21-0.03,0.36-0.05,0.57-0.08c0.03,0.03-0.41,0.17-1.36,0.42
				c0.2-0.03,0.39-0.05,0.53-0.06c-0.04,0.02-0.07,0.04-0.1,0.05c0.24-0.02,0.43-0.02,0.67-0.04c-0.19,0.11,0.33,0.04-0.48,0.31
				c0.22-0.04,0.45-0.08,0.68-0.13c-0.03,0.03,0.01,0.04,0.04,0.06c0.99-0.21-0.49,0.24,0.47,0.05c-0.13,0.07-0.28,0.15-0.42,0.22
				c-0.55,0.13-1.03,0.25-1.58,0.38c-0.24,0.05-0.49,0.1-0.67,0.14c0.13-0.05,0.32-0.12,0.45-0.17c0.58-0.18-0.65,0.12-0.57,0.08
				c-0.14-0.01-0.27-0.01-0.34-0.03c0.13-0.07,0.24-0.13,0.37-0.19c-0.29,0-0.59,0-0.83-0.01c0.1-0.05,0.18-0.1,0.28-0.15
				c0.03-0.05,0.06-0.09,0.15-0.15c-0.48,0.13-0.97,0.26-1.44,0.39c-0.67,0.14,0.16-0.15-1.31,0.24c-0.01-0.12,1.43-0.62-0.85-0.14
				c-1.27,0.26-1.21,0.22-1.2,0.18c0.31-0.09,0.63-0.18,0.9-0.25c0.59-0.16,0.91-0.25,1.22-0.33c0.4-0.13-0.41,0.06-0.62,0.09
				c-0.56,0.12-1.11,0.24-1.66,0.36c0.19-0.16,0.43-0.33,0.67-0.5c0.92-0.28-0.17-0.03-0.39-0.01c0.06-0.03,0.13-0.07,0.19-0.1
				c0.15-0.06,0.36-0.14,0.5-0.2c0.7-0.24-0.35,0.03-0.21-0.03c-0.08,0.01-0.16,0.02-0.18,0.02c1.21-0.39-0.2-0.05,0.2-0.18
				c0.22-0.07,0.44-0.14,0.73-0.23c-0.19,0.04-0.32,0.06-0.46,0.09c0.04-0.02,0.07-0.04,0.1-0.05c0.76-0.27-0.78,0.15-0.43,0.01
				c0.09-0.03,0.25-0.09,0.41-0.14c-0.14,0.01-0.22,0.01-0.31,0.01c0.19-0.05,0.83-0.24,1.49-0.41c0.02-0.01,0.03-0.01,0.05-0.03
				c-0.88,0.17-0.8,0.03-0.51-0.1c-0.33,0.04,0.3-0.2,0.7-0.37c-0.83,0.16-0.33-0.03,0.01-0.16c0.16-0.08,0.31-0.16,0.47-0.24
				c0.15-0.08,0.31-0.16,0.47-0.24c-1.05,0.24-0.23,0-0.8,0.13c-0.29,0.05,0-0.11,0.74-0.31c0.03-0.02,0.06-0.03,0.1-0.05
				c-0.8,0.14-0.28,0.01-0.89,0.1c0.42-0.21,0.91-0.43,1.39-0.65c-0.03-0.01-0.7,0.17-0.45,0.08c-0.3,0.02,0.98-0.27,1.1-0.34
				c-1.1,0.24,0.08-0.12-0.89,0.1c1.58-0.46,0.24-0.22,1.1-0.51c-0.01-0.13-0.07-0.25-0.08-0.39c0.04-0.07,0.6-0.28,1.46-0.55
				c0.04-0.02,0.09-0.05,0.14-0.07c0.16-0.07,0.39-0.16,0.6-0.24c-0.37,0.09-0.68,0.15-1,0.23c0.44-0.22,0.95-0.45,1.38-0.66
				c-0.6,0.06,0.24-0.22,0.44-0.37c-0.2,0.03-0.71,0.14-0.62,0.1c0.06-0.03,0.13-0.07,0.19-0.1c-0.21-0.03-0.02-0.13,0.43-0.29
				c0.12-0.07,0.25-0.13,0.37-0.19C1012.05,757.17,1011.66,757.35,1011.46,757.45z"/>
			<path class="st2" d="M1009.54,758.15c-0.09,0.05,0.42-0.07,0.62-0.1c-0.2,0.15-1.05,0.42-0.44,0.37
				c-0.43,0.21-0.94,0.45-1.38,0.66c0.32-0.07,0.63-0.14,1-0.23c-0.22,0.08-0.44,0.17-0.6,0.24c-0.05,0.03-0.1,0.05-0.14,0.07
				c-0.86,0.26-1.42,0.48-1.46,0.55c0,0.14,0.06,0.26,0.08,0.39c-0.86,0.3,0.48,0.06-1.1,0.51c0.97-0.21-0.21,0.14,0.89-0.1
				c-0.12,0.08-1.4,0.36-1.1,0.34c-0.25,0.08,0.42-0.09,0.45-0.08c-0.48,0.22-0.96,0.44-1.39,0.65c0.6-0.09,0.08,0.05,0.89-0.1
				c-0.04,0.02-0.07,0.04-0.1,0.05c-0.74,0.2-1.03,0.36-0.74,0.31c0.57-0.13-0.25,0.11,0.8-0.13c-0.16,0.08-0.31,0.16-0.47,0.24
				c-0.16,0.08-0.31,0.16-0.47,0.24c-0.34,0.13-0.84,0.32-0.01,0.16c-0.4,0.16-1.03,0.4-0.7,0.37c-0.29,0.13-0.37,0.27,0.51,0.1
				c-0.02,0.01-0.03,0.01-0.05,0.03c-0.66,0.17-1.3,0.36-1.49,0.41c0.09,0,0.17,0,0.31-0.01c-0.16,0.05-0.31,0.1-0.41,0.14
				c-0.35,0.14,1.19-0.28,0.43-0.01c-0.03,0.02-0.06,0.03-0.1,0.05c0.16-0.04,0.33-0.08,0.54-0.13c-0.03,0.02-0.06,0.03-0.09,0.05
				c-0.29,0.09-0.51,0.16-0.73,0.23c-0.4,0.13,1.01-0.21-0.2,0.18c-0.47,0.12-0.94,0.25-1.4,0.37c-0.3,0.06-0.65,0.14-0.93,0.2
				c0.42-0.19-0.05-0.08-0.04-0.13c0.61-0.18,0.4-0.16,0.6-0.24c0.15-0.06,0.35-0.14,0.55-0.21c-0.72,0.02-0.07-0.22-0.28-0.3
				c0.76-0.26,0.23-0.15-0.3-0.06c-1.06,0.35-0.09,0.11-0.25,0.19c-0.27,0.08-0.58,0.16-0.9,0.25c0.49-0.01-0.26,0.29-1.12,0.58
				c0.21-0.02,0.48-0.05,0.7-0.08c0.06,0.02,0.1,0.04,0.22,0.04c-0.54,0.16-1.09,0.32-1.63,0.48c-0.89,0.31-1.05,0.39-1.47,0.54
				c0.15,0,0.32-0.01,0.49-0.02c-0.29,0.12-0.59,0.25-0.83,0.36c-0.6,0.14-1.25,0.3-1.85,0.45c0.08-0.04,0.15-0.08,0.23-0.12
				c1.62-0.49,0.43-0.21,0.56-0.29c0.25-0.07,0.44-0.12,0.64-0.18c-0.07-0.01-0.14-0.02-0.27-0.01c0.58-0.19,1.09-0.37,1.65-0.56
				c-1.41,0.31-0.97,0.15-0.94,0.12c1.09-0.29-0.05-0.06,0.16-0.16c-0.28,0.05-0.24,0-0.54,0.05c0.07-0.04,0.12-0.07,0.19-0.1
				l0.04-0.02c0.27-0.07,0.55-0.13,0.82-0.2c0.16-0.07,0.39-0.16,0.6-0.24c-0.42,0.06-0.34,0.02-0.21-0.04
				c-0.51,0.12-0.98,0.22-1.49,0.33c0.06-0.03,0.13-0.07,0.18-0.1c0.21-0.06,0.42-0.13,0.69-0.21c-0.29,0.05-0.52,0.07-0.75,0.1
				c0.08-0.03,0.22-0.07,0.3-0.1c0.05-0.03,0.1-0.05,0.15-0.08c0.58-0.15,1.18-0.31,1.71-0.45c-1.24,0.26,0.31-0.21-0.66-0.02
				c0.88-0.29,0.79-0.29,0.69-0.28c0.2-0.06,0.4-0.11,0.64-0.18c0.3-0.06,0.59-0.13,0.94-0.2c0.18-0.05,0.37-0.1,0.54-0.14
				c0.1-0.06,0.22-0.12,0.33-0.17c0.56-0.09,0.77-0.11-0.06,0.11c0.03,0.01,0.01,0.04,0.04,0.06c0.56,0-0.94,0.52,0.5,0.26
				c0.65-0.22,1.03-0.34,0.59-0.25c1-0.46,0.2-0.54,2.39-1.31c-0.3,0.05-0.55,0.09-0.85,0.14c0.29-0.2,1.44-0.63,0.86-0.59
				c0.21-0.05,0.4-0.1,0.54-0.14c0.37-0.15-1.1,0.21-1.19,0.19c0.25-0.08,0.51-0.17,0.77-0.26c1.58-0.41-0.26-0.02,0.18-0.17
				c0.37-0.13,0.7-0.26,1.01-0.37c0.05-0.07,0.13-0.21-1.37,0.13c-0.07,0.01-0.15,0.02-0.18,0.01c0.07-0.1,0.21-0.22,0.34-0.33
				c0.6-0.14,1.25-0.3,1.85-0.45c0.51-0.14,0.39-0.16,0.6-0.24c0.05-0.03,0.09-0.05,0.14-0.07c-0.2,0.04-0.34,0.07-0.49,0.11
				c0.15-0.08,0.31-0.16,0.46-0.24c-0.3,0.05-1,0.23-1.17,0.24c0.07-0.04,0.13-0.07,0.19-0.1c0.6-0.16,1.16-0.31,1.76-0.48
				c0.48-0.13,0.32-0.12,0.51-0.19c-0.71,0.15-0.39,0.02-0.94,0.12c0.1-0.05,0.18-0.1,0.28-0.15c0.48-0.13,0.32-0.12,0.45-0.17
				c1.03-0.29,0.85-0.28,1.37-0.41C1009.34,758.21,1009.46,758.17,1009.54,758.15z"/>
			<path class="st1" d="M1007.17,758.96c0.55-0.1,0.23,0.03,0.94-0.12c-0.19,0.07-0.02,0.06-0.51,0.19
				c-0.6,0.16-1.16,0.32-1.76,0.48C1006.26,759.32,1006.69,759.15,1007.17,758.96z"/>
			<path class="st1" d="M1006.35,759.6c0.15-0.03,0.3-0.06,0.49-0.11c-0.05,0.03-0.09,0.05-0.14,0.07c-0.21,0.08-0.09,0.09-0.6,0.24
				c-0.6,0.14-1.25,0.3-1.85,0.45c0.28-0.12,0.5-0.22,0.79-0.33c0.2-0.11,0.41-0.21,0.6-0.31c0.17-0.01,0.87-0.19,1.17-0.24
				C1006.66,759.44,1006.5,759.52,1006.35,759.6z"/>
			<path class="st1" d="M998.87,761.82c1.7-0.38-0.04,0.13,0.97-0.08c-0.27,0.08-0.59,0.17-0.91,0.26
				c-0.32,0.08-0.71,0.17-1.03,0.25c-0.28,0.04-0.51,0.07-0.75,0.1c0.47-0.15,0.94-0.3,1.45-0.47
				C998.65,761.87,998.76,761.85,998.87,761.82z"/>
			<path class="st1" d="M993.24,763.95c-0.25,0.07-0.47,0.14-0.68,0.2c-0.27,0.07-0.49,0.12-0.76,0.18c-1.18,0.27-0.36,0.02-0.45,0
				c0.53-0.13,1.29-0.32,1.54-0.36C992.98,763.98,993.09,763.97,993.24,763.95z"/>
			<path class="st3" d="M998.7,762.49c-0.35,0.11-0.7,0.21-0.99,0.31c-0.4,0.13,0.21,0,0.21,0.03c0.19-0.02,0.39-0.05,0.58-0.07
				c0.32-0.07,0.62-0.14,0.99-0.23c-0.21,0.08-0.41,0.15-0.55,0.21c-0.47,0.13-0.94,0.25-1.4,0.37c-1.12,0.38-0.04,0.14,0.11,0.16
				c-0.03,0.02-0.06,0.03-0.1,0.05c-0.19,0.08-0.44,0.18-0.64,0.27c0,0.02,0.04,0.03,0.03,0.04c0.01,0.02,0.03,0.04-0.01,0.08
				c-0.03,0.02-0.06,0.03-0.09,0.05c-0.1,0.05-0.19,0.1-0.28,0.15c-0.04,0.02-0.07,0.04-0.1,0.05c0,0.03-0.05,0.07-0.05,0.1
				c-0.04,0.02-0.07,0.04-0.1,0.05c-0.01,0.05-0.01,0.1,0.03,0.14c0.03,0,0.11-0.01,0.13-0.01c-0.05,0.03-0.1,0.05-0.15,0.08
				c-0.08,0.03-0.22,0.07-0.3,0.1c-0.59,0.2-1.17,0.41,0.06,0.11c-0.06,0.03-0.13,0.07-0.18,0.1c-0.14,0.06-0.35,0.14-0.56,0.21
				c0.74-0.14,0.6-0.05,0.84-0.07l-0.04,0.02c-0.07,0.04-0.13,0.07-0.19,0.1c-0.3,0.09-0.65,0.2-0.99,0.31
				c-0.09,0.05-0.19,0.1-0.27,0.14c0.76-0.17,0.84-0.12-0.28,0.15c0.55-0.09,0.15,0.04-0.11,0.13c0,0.02,0.04,0.03,0.09,0.03
				c0.92-0.21,0.39-0.03,0.75-0.1c-0.12,0.07-0.24,0.13-0.37,0.19c-0.28,0.08-0.51,0.16-0.73,0.23c0.87-0.19,0.66-0.08,0.27,0.02
				c-0.48,0.13-0.95,0.25-0.54,0.13c-0.2,0.11-0.45,0.2,0.22,0.04c0.03,0.03,0.05,0.06,0.07,0.1c-0.14,0.06-0.35,0.14-0.5,0.2
				c0.22-0.05,0.49-0.12,0.76-0.18c-0.09,0.05-0.18,0.1-0.27,0.14c-0.25,0.1-0.45,0.19-0.7,0.29c0.27-0.07,0.54-0.13,0.81-0.2
				c-0.16,0.09-0.34,0.18-0.5,0.26c0.9-0.2,0.42-0.04,0.43-0.01c-0.62,0.17-1.48,0.39-0.6,0.24c0.02,0.02-0.02,0.06,0,0.08
				c-0.19,0.1-0.38,0.2-0.56,0.29c0.7-0.15,0.39-0.02,0.94-0.12c-0.29,0.11-0.58,0.21-0.92,0.33c-0.2,0.17,0.4,0.08,0.56,0.15
				c-0.52,0.18-0.37,0.18-0.77,0.27c-0.98,0.21-0.64,0.08-1.26,0.21c0-0.03,0.01-0.06,0.06-0.11c-1.05,0.24,0.52-0.24-1.21,0.19
				c0.26-0.09,0.52-0.18,0.82-0.28c-0.22-0.05,0.03-0.26-0.54-0.24c0.22-0.08,0.38-0.15,0.59-0.23c-0.05,0,0.37-0.13-0.09-0.03
				c-0.19,0.01-0.13-0.1,1.16-0.45c0.03-0.01,0.06-0.03,0.09-0.05c-0.7,0.12-0.32,0-0.7,0.08c-0.87,0.22-0.51,0.08-0.58,0.07
				c-0.12-0.01,0.55-0.17,1.31-0.4c-1.07,0.22-0.61,0.04-1.38,0.21c1.5-0.51,0.2-0.32,0.95-0.65c0.31-0.09,0.63-0.18,1.17-0.32
				c-0.14,0.01-0.33,0.04-0.53,0.06c-0.21,0.03-0.42,0.07-0.58,0.09c2.18-0.65-1.91,0.32,0.57-0.38c-0.05,0,0.36-0.13-0.09-0.03
				c-0.98,0.25-0.68,0.14-0.58,0.09c0.38-0.09,1.07-0.25,1.13-0.3c0.57-0.19-0.76,0.11-0.94,0.12c0.13-0.07,0.28-0.15,0.42-0.22
				c0.43-0.21,0.91-0.43,1.39-0.65c0-0.02,0.17-0.07-0.13-0.01c-0.98,0.25-0.74,0.16-0.63,0.1c0.25-0.06,0.4-0.1,0.59-0.16
				c-0.05-0.03-0.49,0.06-0.13-0.09c0.71-0.17,0.55-0.17,1.22-0.33c-0.78,0.04,0.48-0.44,0.15-0.52c-1.7,0.52-2.26,0.81-1.81,0.79
				c0.17,0-0.59,0.17-0.72,0.24c0.7-0.08-0.7,0.39-0.4,0.43c0.05,0.08-0.6,0.39-0.08,0.33c-0.25,0.08-0.51,0.17-0.77,0.26
				c-0.57,0.15-1.15,0.29-1.67,0.43c-0.09-0.01-0.14-0.04-0.17-0.06c-0.94,0.22-0.05-0.07-0.07-0.1c0.15-0.08,0.31-0.16,0.46-0.24
				c-0.3,0.05-0.84,0.16-0.85,0.14c0.37-0.13,0.69-0.25,1.01-0.37c-0.18-0.09,0.68-0.45,0.73-0.6c0.37-0.19,0.29-0.23,0.2-0.26
				c0.27-0.12,0.59-0.26,0.92-0.41c0.27-0.07,0.49-0.12,0.76-0.18c0.2-0.03,0.39-0.05,0.58-0.08c1.2-0.28,0.81-0.26,1.09-0.36
				l0.04-0.02c0.82-0.28,0.92-0.33,1.01-0.37c0.15-0.06,0.36-0.14,0.5-0.2c0.45-0.11,0.9-0.22,1.35-0.34
				c0.54-0.13,1.09-0.26,1.58-0.38C998.72,762.43,998.69,762.47,998.7,762.49z"/>
			<path class="st1" d="M988.93,765.97c0.01,0.02,0.55-0.09,0.85-0.14c-0.15,0.08-0.31,0.16-0.46,0.24
				c-0.62,0.14-1.18,0.27-1.75,0.39c0.06-0.06,0.18-0.14,0.24-0.2C988.16,766.17,988.57,766.07,988.93,765.97z"/>
			<path class="st4" d="M1010.47,762.59c0.27,0.03,1.66-0.27,0.56,0.08c-0.03,0.03-0.02,0.06-0.01,0.08
				c0.71-0.11-0.29,0.25-0.66,0.42c2.54-0.59,0.52,0.03,1.6-0.18c-0.19,0.11-1.27,0.42-1.48,0.54c1.18-0.23,0.51,0.02,2.38-0.43
				c-0.12,0.06-0.22,0.12-0.6,0.24c0.92-0.19,0.38,0,0.3,0.07c0.25-0.04,0.55-0.09,0.8-0.13c-0.97,0.35,0.34,0.08-0.22,0.33
				c0.47-0.08-0.13,0.14,1.48-0.25c-0.34,0.16-0.11,0.15,0.66,0.02c1.43-0.39,1.14-0.41,2.85-0.83c1.95-0.42-1.6,0.58,0.88-0.01
				c-0.21,0.08-0.04,0.08-0.55,0.21c-0.59,0.22-2.49,0.7-3.26,0.97c-0.31,0.1-0.71,0.25-1.54,0.44c-0.45,0.1-0.95,0.2-1.44,0.31
				c0.02-0.03-0.01-0.04,0.01-0.07c0.3-0.09,0.64-0.2,1-0.31c-0.36,0.06-0.48,0.05-1.07,0.19c0.46-0.16,0.5-0.19-0.39-0.01
				c-0.47,0.09-0.93,0.18-1.34,0.26c0.01-0.06,0.06-0.14,0.11-0.21c0.05-0.07,0.1-0.14,0.16-0.22c-0.65,0.13-0.29-0.03-0.79,0.05
				c0.09-0.03,0.25-0.09,0.36-0.12c-0.07-0.01-0.14-0.02-0.21-0.03c0.14-0.07,0.28-0.15,0.42-0.22c-0.96,0.2,0.52-0.26-0.47-0.05
				c-0.03-0.01-0.07-0.02-0.04-0.06c-0.23,0.04-0.46,0.09-0.68,0.13c0.81-0.27,0.29-0.2,0.48-0.31c-0.25,0.02-0.43,0.02-0.67,0.04
				c0.03-0.01,0.06-0.03,0.1-0.05c-0.14,0.01-0.33,0.04-0.53,0.06c0.95-0.25,1.38-0.38,1.36-0.42c-0.21,0.03-0.36,0.05-0.57,0.08
				c0.08-0.04,0.15-0.08,0.23-0.12c-0.03-0.01-0.07-0.02-0.04-0.06c0.19-0.05,0.39-0.11,0.63-0.18c-0.17,0.03-0.29,0.04-0.4,0.06
				c-0.03-0.01-0.02-0.04-0.04-0.06c0.09-0.05,0.18-0.1,0.27-0.14C1010.25,762.66,1010.33,762.64,1010.47,762.59z"/>
			<path class="st3" d="M994.98,767.45c0.05-0.01,0.16-0.04,0.27-0.07c0,0.02,0.04,0.03,0.03,0.04c-0.11,0.06-0.22,0.12-0.33,0.17
				c-0.08,0.04-0.15,0.08-0.23,0.12c1.07-0.25-0.11,0.1,0.4,0.02c0.27-0.07,0.49-0.12,0.76-0.18c0.15-0.03,0.3-0.06,0.5-0.11
				c-0.11,0.03-0.22,0.05-0.27,0.07c-0.38,0.12-0.76,0.24-1.08,0.35c-0.08,0.04-0.15,0.08-0.23,0.12c0.12,0,0.91-0.2,0.89-0.17
				c-0.04,0.02-0.09,0.05-0.13,0.07c0.49-0.12,1.03-0.25,1.58-0.38c0.36-0.06,0.82-0.17,0.58-0.09c-0.37,0.19,0.76-0.15,1.43-0.3
				c0.29-0.08,0.53-0.14,0.81-0.21c0.06-0.12-0.48-0.07-0.69-0.08c0.16-0.05,0.31-0.1,0.42-0.14c0.03-0.03,0.02-0.06,0.01-0.08
				c-0.19,0.04-0.43,0.09-0.67,0.14c0.15-0.08,0.28-0.15,0.42-0.22c0.43-0.15,0.85-0.29,1.23-0.43c0.34-0.07,0.62-0.12,0.95-0.19
				c-0.25,0.08,0.08,0.02,0.26,0c0.47-0.02-0.79,0.38,0.47,0.12c-1.5,0.47,1.41-0.14-1.13,0.59c0.6-0.11,1.2-0.23,1.8-0.34
				c0.37-0.1,0.74-0.2,1.17-0.32c0.49-0.12,1.03-0.25,1.8-0.43c0.39-0.14,0.72-0.27,1.06-0.4c0.99-0.19,0.52-0.04,0.94-0.12
				c-0.04,0.02-0.07,0.04-0.1,0.05c0.33-0.05,0.65-0.09,0.98-0.14l-0.04,0.02c-0.31,0.12-0.61,0.23-0.97,0.35l-0.04,0.02
				c1.17-0.26,0.75-0.11,0.71-0.06c-0.07,0.05-0.08,0.09-0.15,0.14c0.09-0.02,0.18-0.03,0.22-0.04c0.46-0.12,0.93-0.24,1.4-0.37
				c0.58-0.15,0.2-0.11,1-0.29c0.22-0.05,0.49-0.12,0.76-0.18c0.14-0.03,0.29-0.06,0.49-0.11c-0.02,0.03,0.01,0.04-0.01,0.07
				c-0.41,0.14-0.95,0.25-1.4,0.36c-0.48,0.13-0.32,0.12-0.45,0.17c-1.82,0.54-0.59,0.25-0.92,0.41c-0.7,0.2-1.46,0.41-2.17,0.61
				c-0.38,0.07-0.75,0.15-1.12,0.22c-0.49,0.12-1.03,0.25-1.58,0.38c0.08-0.04,0.16-0.08,0.23-0.12c-0.57,0.13-1.14,0.26-1.71,0.39
				c0.16-0.07,0.39-0.16,0.6-0.24c-0.08,0.01-0.16,0.02-0.18,0.01c0.08-0.03,0.22-0.07,0.36-0.11c0.49-0.18-0.29,0-1.52,0.27
				c-0.75,0.16,0.01-0.06-0.71,0.08c-0.38,0.09-0.71,0.17-1.04,0.25c-0.66,0.16-1.28,0.32-1.89,0.47c-0.07,0.04-0.12,0.07-0.19,0.1
				c-0.37,0.1-0.79,0.22-1.17,0.32c-0.45,0.13-0.6,0.2-0.33,0.17l-0.04,0.02c-0.87,0.22-1.68,0.43-2.49,0.64
				c-0.1,0.05-0.86,0.2-1.39,0.36c-0.12,0.06-0.22,0.12-0.33,0.17c-0.33,0.07-0.61,0.12-0.95,0.19c-0.29,0.06-0.64,0.13-0.94,0.2
				c-0.42,0.13-0.89,0.27-1.31,0.4c-0.94,0.2-0.66,0.09-1.25,0.21c0.25-0.1,0.45-0.19,0.69-0.28c0.6-0.14,1.2-0.29,1.85-0.45
				c0.08-0.04,0.15-0.08,0.23-0.12c-1.38,0.29-0.93,0.12-0.71,0c0.41-0.09,0.76-0.17,1.22-0.27c0.58-0.24-0.2-0.06,0.65-0.34
				c-0.2-0.03-0.97,0.18-1.25,0.21c-1.45,0.48,0.54,0.03-0.79,0.42c-0.7,0.17-1.39,0.33-2.07,0.49c-0.12,0.01-0.24,0.03-0.36,0.05
				c-0.29,0-0.54-0.01-0.83-0.01c-0.55,0.06,0.13-0.21-0.37-0.17c-0.08,0-0.17,0-0.31,0.01c0.82-0.29,0.27-0.19,0.07-0.18
				c0.03-0.02,0.06-0.03,0.09-0.05c0.49-0.12,1.04-0.25,1.58-0.38c0.44-0.03,1.45-0.25,1.28-0.16c-0.06,0.03-0.13,0.07-0.19,0.1
				c0.12-0.01,0.24-0.03,0.41-0.06c-0.19,0.07-0.37,0.13-0.5,0.19c-0.4,0.15,0.98-0.19,1.03-0.17c-0.25,0.1-0.45,0.19-0.69,0.28
				c-0.22,0.1,0.93-0.21,1.43-0.3c0.08-0.04,0.15-0.08,0.23-0.12c0.6-0.19-0.56,0.08-0.43,0.01c0.29-0.09,0.65-0.2,0.99-0.31
				c0.82-0.26-0.97,0.2-0.75,0.1c1.42-0.45-0.05-0.08,0.24-0.2c1.1-0.33,0.14-0.11,0.64-0.26c0.17-0.04,0.36-0.09,0.54-0.14
				c0.29-0.09,0.54-0.17,0.78-0.25c0.13-0.07,0.24-0.13,0.37-0.19C994.11,767.66,994.54,767.56,994.98,767.45z"/>
			<path class="st1" d="M1001.65,766.91c0.72-0.15-0.03,0.08,0.71-0.08c-0.4,0.13-0.8,0.26-1.14,0.38c-0.45,0.1-0.8,0.17-1.21,0.26
				c-0.28,0.05-0.19-0.01-0.95,0.19c-0.14,0.01-0.34,0.04-0.53,0.06c0.07-0.04,0.13-0.07,0.19-0.1c0.61-0.15,1.23-0.3,1.89-0.47
				C1000.94,767.08,1001.27,767,1001.65,766.91z"/>
			<path class="st5" d="M1003.88,766.56c-0.14,0.04-0.28,0.08-0.36,0.11c0.02,0.01,0.1,0,0.18-0.01c-0.22,0.08-0.44,0.17-0.6,0.24
				c0.57-0.13,1.14-0.26,1.71-0.39c-0.08,0.04-0.16,0.08-0.23,0.12c0.55-0.13,1.09-0.26,1.58-0.38c0.37-0.07,0.74-0.14,1.12-0.22
				c-1.01,0.3-1.89,0.54-3.21,0.87c-0.81,0.26-0.82,0.26-1.31,0.4c-0.43,0.1-0.87,0.21-1.58,0.38c-0.44,0.11-0.9,0.22-1.35,0.34
				c-0.47,0.13-0.96,0.26-1.44,0.39c-0.27,0.05-0.58,0.1-0.85,0.15c-0.55,0.15-1.16,0.32-1.76,0.48c-0.3,0.06-0.65,0.14-0.94,0.2
				c-0.37,0.06-0.79,0.12-1.21,0.19c-0.31,0.04-0.63,0.08-0.94,0.12c-0.17,0.04-0.36,0.09-0.53,0.14c-0.52,0.12-0.98,0.22-1.49,0.33
				c-0.36,0.06-0.72,0.13-1.07,0.19c0.43-0.13,0.89-0.27,1.31-0.4c0.3-0.06,0.65-0.14,0.94-0.2c0.34-0.07,0.62-0.12,0.95-0.19
				c0.11-0.06,0.21-0.11,0.33-0.17c0.53-0.16,1.29-0.31,1.39-0.36c0.81-0.21,1.62-0.42,2.49-0.64c0.34-0.04,0.75-0.1,1.15-0.16
				c-0.31,0.1-0.56,0.19-0.82,0.27c0.55-0.12,1.1-0.24,1.7-0.37c0.65-0.17,1.3-0.34,1.94-0.51c-0.19,0.02-0.34,0.04-0.53,0.06
				c0.22-0.1,0.5-0.22,0.78-0.33c0.34-0.12,0.74-0.25,1.14-0.38C1003.59,766.55,1004.37,766.38,1003.88,766.56z"/>
			<path class="st1" d="M999.41,767.79c-0.13,0.07-0.25,0.13-0.38,0.2c-0.12,0.03-0.25,0.07-0.32,0.09
				c-0.48,0.1-0.91,0.18-1.38,0.28c0.25-0.09,0.51-0.18,0.82-0.27C998.57,767.98,998.93,767.9,999.41,767.79z"/>
			<path class="st4" d="M1013.8,756.89c0.49-0.09,0.03,0.06-0.03,0.15c-0.69,0.16-1.32,0.31-2.02,0.47
				c0.11-0.06,0.22-0.12,0.33-0.17c0.19-0.05,0.39-0.11,0.63-0.18C1013.26,757.02,1013.53,756.95,1013.8,756.89z"/>
			<path class="st4" d="M1007.9,758.64c-0.64,0.13-0.25,0.01-0.21-0.03c0.49-0.12,1.03-0.25,1.58-0.38
				C1008.75,758.36,1008.93,758.34,1007.9,758.64z"/>
			<path class="st4" d="M1017.41,756.32c-0.04,0.07,0.86-0.1,0.03,0.14c-0.3,0.03-0.59,0.06-0.89,0.1
				C1016.85,756.47,1017.1,756.4,1017.41,756.32z"/>
			<path class="st4" d="M1017.97,756.39c0.08,0,0.17,0,0.31-0.01c-0.28,0.08-0.51,0.16-0.73,0.23c-0.23,0.15-0.53,0.32-0.76,0.47
				c0.69-0.08-0.45,0.33-0.62,0.48c0.76-0.11-0.67,0.38-0.35,0.4c-0.06,0.34-1.48,1.05-1.56,1.4c0.49-0.12,0.09,0.01-0.72,0.24
				c-1.26,0.31-0.12-0.04-1.35,0.26c2.58-0.84-1.03-0.1,1.51-0.94c-0.27,0.07-0.61,0.15-0.71,0.16c0.05-0.03,0.05-0.04,0.41-0.14
				c0.43-0.1,0.29-0.11,0.46-0.16c-0.36,0.08-0.91,0.23-1.04,0.24c1.13-0.35,1.38-0.55,1.34-0.62c-0.15-0.11,0.16-0.35,0.82-0.64
				c-0.69,0.15-0.35-0.03,0.47-0.24c-1.63,0.36,1.42-0.41-0.22-0.04c0.11-0.07,0.45-0.2,0.96-0.35c-1.12,0.25,0.37-0.18,0.88-0.39
				c-0.59,0.13,0.5-0.2-0.54,0.05c0.25-0.08,0.48-0.16,0.78-0.25C1017.54,756.48,1017.73,756.44,1017.97,756.39z"/>
			<path class="st4" d="M1012.98,757.98c-0.66,0.13-0.6,0.1-0.53,0.06C1013.97,757.61,1013.41,757.86,1012.98,757.98z"/>
			<path class="st4" d="M1012.42,758.19c1.47-0.25-0.02,0.19-0.21,0.34C1011.86,758.51,1011.62,758.49,1012.42,758.19z"/>
			<path class="st4" d="M999.02,761.66c0.94-0.2,0.66-0.05-0.15,0.16c-0.11,0.03-0.22,0.05-0.27,0.07
				c-0.52,0.16-0.98,0.31-1.45,0.47c-0.33,0.07-0.61,0.12-0.94,0.19c-0.06-0.05,0.9-0.27,1.9-0.55c-0.02-0.01-0.1,0-0.18,0.02
				c0.08-0.04,0.16-0.08,0.23-0.12c0.12-0.03,0.25-0.07,0.32-0.09C998.64,761.76,998.81,761.72,999.02,761.66z"/>
			<path class="st4" d="M1004.09,760.56c-0.38,0.12-0.76,0.24-1.14,0.36c-0.44,0.08-0.49,0.01,0.96-0.35
				C1003.94,760.58,1004.02,760.57,1004.09,760.56z"/>
			<path class="st4" d="M1003.49,760.88c-0.43,0.16-0.04,0.11-0.07,0.18c-0.37,0.18-0.87,0.36-1.01,0.45
				c-0.08,0.04-0.15,0.08-0.23,0.12c-0.64,0.16-0.47,0.17-1.22,0.35c-0.73,0.17-1.52,0.35-2.25,0.52c-0.01-0.02,0.02-0.06,0.01-0.08
				c0.16-0.08,0.31-0.16,0.47-0.24c-0.19,0.02-0.97,0.2-0.53,0.06c0.08-0.07,0.15-0.14,0.28-0.22c0.32-0.09,0.64-0.18,0.91-0.26
				c0.66-0.1,0.68-0.05,1.61-0.24c0.93-0.26-0.31,0.03,0.01-0.08c0.45-0.13,0.69-0.24,1.4-0.44
				C1003.07,760.94,1003.28,760.91,1003.49,760.88z"/>
			<path class="st4" d="M1011.86,758.93c-0.82,0.2-1.17,0.26-0.8,0.13C1012.2,758.76,1012.66,758.69,1011.86,758.93z"/>
			<path class="st4" d="M995.52,763.12c0.09,0,0.17,0,0.26,0c-0.14,0.06-0.35,0.14-0.5,0.2c-0.09,0.05-0.18,0.1-1.01,0.37
				c-0.33,0.08-0.71,0.17-1.04,0.25c-0.15,0.02-0.25,0.03-0.35,0.03c0.19-0.07,0.31-0.11,0.5-0.19c-0.09,0-0.18,0-0.31,0.01
				c1.57-0.39,1.4-0.38,1.54-0.44c0.14-0.04,0.27-0.08,0.36-0.11C995.14,763.22,995.31,763.18,995.52,763.12z"/>
			<path class="st4" d="M990.67,765c-0.05,0.15-0.91,0.51-0.73,0.6c-0.32,0.12-0.64,0.24-1.01,0.37c-0.36,0.09-0.76,0.2-1.12,0.29
				c-1.03,0.15,0.67-0.4-0.14-0.29c0.87-0.29,0.79-0.37,2.19-0.78c-0.03-0.03-0.05-0.07-0.07-0.1c-0.29,0.06-0.33-0.01,1.09-0.36
				C990.96,764.77,991.04,764.81,990.67,765z"/>
			<path class="st4" d="M1012.79,760.28c0.58-0.1,0.71-0.09,0.26,0.02C1012.48,760.43,1012.2,760.46,1012.79,760.28z"/>
			<path class="st4" d="M989.32,766.08c0.03,0.03-0.87,0.32,0.07,0.1c0.04,0.03,0.08,0.05,0.17,0.06c-0.11,0.06-0.22,0.12-0.33,0.17
				c-0.11,0.03-0.22,0.05-0.27,0.07c-0.51,0.15-1.03,0.29-1.54,0.44c-0.13,0.07,0.33-0.02,0.44-0.02c-0.04,0.02-0.07,0.03-0.09,0.05
				c-0.13,0.07-0.25,0.13-0.37,0.19c0.38-0.07,0.3-0.03,0.58-0.07c-0.04,0.02-0.07,0.04-0.1,0.05c0.27-0.05,0.58-0.1,0.85-0.15
				c-0.16,0.08-0.31,0.16-0.47,0.24c-0.36,0.16-1.6,0.56-1.2,0.55c-0.17,0.13-0.33,0.26-0.44,0.38c0.24,0,0.18,0.07-0.16,0.22
				c-1.36,0.39-0.11,0.13-0.07,0.19c0.16-0.03,0.3-0.06,0.51-0.11c-0.02,0.01-0.04,0.02-0.05,0.02c-0.18,0.06-0.35,0.12-0.46,0.16
				c0.04,0.03,0.07,0.05,0.11,0.08c0.01,0.05-0.03,0.12-0.06,0.18c-0.18,0.05-0.37,0.1-0.59,0.16c-0.55,0.12-1.1,0.24-1.66,0.36
				c0.33-0.15-1.81,0.27,1.07-0.48c-2.06,0.48-1.02,0.17-0.72,0.07c-0.22,0.02-0.48,0.05-0.7,0.08c-0.16-0.02,0.72-0.21,1.59-0.46
				c-0.65,0.14-1.24,0.26-1.88,0.4c0.67-0.27,0.18-0.26,0.84-0.52c-0.77,0.19-0.68,0.11-0.43,0.01c0.31-0.16,0.62-0.32,0.93-0.49
				c0.25-0.07,0.28-0.08,0.09-0.05c-1.31,0.33-0.58,0.06-1.52,0.27c0.12-0.06,1.03-0.29,1.81-0.5c-0.27,0.04-0.49,0.06-0.71,0.08
				c0.63-0.18,0.22-0.13,0.86-0.31c-0.44,0.02,1.34-0.41,0.47-0.24c-0.16,0.04-0.33,0.08-0.49,0.12c1.27-0.38-0.5-0.05,1.51-0.57
				c-0.05,0,0.37-0.13-0.09-0.03c0.06-0.05-0.67,0.07,0.74-0.31C988.13,766.34,988.7,766.21,989.32,766.08z"/>
			<path class="st5" d="M1001.12,763.22c0.53-0.09,1.06-0.2,0.3,0.06c0.21,0.08-0.44,0.32,0.28,0.3c-0.2,0.08-0.4,0.15-0.55,0.21
				c-0.1,0.05-0.18,0.1-0.28,0.15c-0.12,0.03-0.19,0.05-0.32,0.09c-0.01,0.05,0.46-0.06,0.04,0.13c0.29-0.06,0.64-0.13,0.93-0.2
				c0.47-0.12,0.93-0.24,1.4-0.37c0.02,0.01,0.1,0,0.18-0.02c-0.28,0.08-0.51,0.16-0.73,0.23c-0.04,0.02-0.07,0.03-0.1,0.05
				c-0.19,0.05-0.39,0.11-0.58,0.16c-0.04,0.02-0.07,0.04-0.1,0.05c0.41-0.09,0.76-0.17,1.21-0.26c-0.06,0.03-0.13,0.07-0.19,0.1
				c-0.3,0.08-0.6,0.16-0.9,0.24c0.56-0.09,0.63-0.07,1.3-0.23c-0.24,0.17-0.48,0.34-0.67,0.5c-0.24,0.1-0.5,0.2-0.69,0.28
				c-0.19,0.08,0.74-0.16,0.85-0.15c-0.01,0.04-0.07,0.08,1.2-0.18c-0.34,0.12-0.62,0.22-0.91,0.32c-2.78,0.71,0.53-0.03-0.92,0.4
				c0.8-0.17,0.22,0.01-0.06,0.11c-0.19,0.1-0.37,0.19-0.56,0.29c-0.08,0.04-0.16,0.08-0.23,0.12c0.79-0.12-0.37,0.24,1.02-0.09
				c-0.32,0.14-0.58,0.26-1.37,0.5c0.02,0,0.11-0.01,0.13-0.01c0.63-0.16,1.31-0.33,1.94-0.49c0.8-0.23,0.94-0.23,1.58-0.38
				c0.29-0.08,0.53-0.14,0.81-0.21c0.14-0.04,0.22-0.07,0.37-0.12c0.21-0.09,0.47-0.2,0.74-0.31c0.59-0.2-0.69,0.11-0.45,0
				c0.31-0.1,0.27-0.14,1.1-0.34c0.24,0.01,0.54,0.01,0.83,0.01c-0.13,0.07-0.24,0.13-0.37,0.19c0.07,0.02,0.21,0.03,0.34,0.03
				c-0.08,0.04,1.15-0.26,0.57-0.08c-0.13,0.05-0.32,0.12-0.45,0.17c0.19-0.04,0.43-0.09,0.67-0.14c-0.24,0.08-0.48,0.16-0.78,0.25
				c-0.05,0.03-0.1,0.05-0.15,0.08c0.21-0.05,0.35-0.08,0.51-0.11c0.16-0.04,0.33-0.08,0.54-0.13c-0.47,0.17-0.92,0.33-1.38,0.49
				c-0.05,0.05-0.15,0.12-0.19,0.18c-0.34,0.13-0.67,0.26-1.06,0.4c-0.06,0.02-0.19,0.05-0.27,0.08c-1.51,0.34-2.04,0.51-2.7,0.67
				c-0.6,0.11-1.2,0.23-1.8,0.34c2.53-0.72-0.37-0.11,1.13-0.59c-1.26,0.26,0-0.14-0.47-0.12c-0.18,0.02-0.51,0.08-0.26,0
				c-0.33,0.07-0.61,0.12-0.95,0.19c-0.37,0.13-0.8,0.28-1.23,0.43c-0.14,0.07-0.27,0.14-0.42,0.22c0.24-0.05,0.49-0.1,0.67-0.14
				c0.01,0.02,0.02,0.05-0.01,0.08c-0.1,0.04-0.26,0.09-0.42,0.14c0.21,0.01,0.76-0.04,0.69,0.08c-0.28,0.07-0.52,0.13-0.81,0.21
				c-0.67,0.15-1.8,0.5-1.43,0.3c0.24-0.08-0.22,0.02-0.58,0.09c-0.55,0.13-1.09,0.26-1.58,0.38c0.05-0.03,0.1-0.05,0.13-0.07
				c0.02-0.03-0.77,0.17-0.89,0.17c0.08-0.04,0.16-0.08,0.23-0.12c0.29-0.11,0.57-0.21,0.86-0.31c-0.27,0.07-0.49,0.12-0.76,0.18
				c-0.51,0.08,0.67-0.27-0.4-0.02c0.08-0.04,0.16-0.08,0.23-0.12c0.38-0.09,0.71-0.17,1.09-0.26c0.08-0.07-0.46,0.04-0.76,0.09
				c0-0.02-0.04-0.03-0.03-0.04c-0.11,0.03-0.22,0.05-0.27,0.07c-0.44,0.11-0.87,0.21-1.58,0.38c-0.27,0.07-0.54,0.13-0.76,0.18
				c0.03-0.02,0.06-0.03,0.1-0.05c0.41-0.09,0.25-0.08,0.77-0.27c-0.16-0.07-0.76,0.01-0.56-0.15c0.34-0.12,0.63-0.22,0.92-0.33
				c-0.55,0.1-0.24-0.03-0.94,0.12c0.18-0.1,0.37-0.19,0.56-0.29c-0.02-0.02,0.02-0.06,0-0.08c-0.74,0.16-0.8,0.1,0.06-0.11
				c0.22-0.05,0.38-0.09,0.55-0.13c-0.01-0.02,0.47-0.18-0.43,0.01c0.16-0.09,0.34-0.18,0.5-0.26c-0.27,0.07-0.54,0.13-0.81,0.2
				c0.25-0.1,0.44-0.19,0.7-0.29c0.09-0.05,0.18-0.1,0.27-0.14c-0.27,0.07-0.54,0.13-0.76,0.18c0.15-0.06,0.36-0.14,0.5-0.2
				c-0.02-0.04-0.05-0.07-0.07-0.1c-0.66,0.16-0.42,0.07-0.22-0.04c-0.4,0.12,0.06,0,0.54-0.13c0.39-0.1,0.6-0.21-0.27-0.02
				c0.22-0.07,0.45-0.14,0.73-0.23c0.13-0.07,0.24-0.13,0.37-0.19c-0.36,0.07,0.17-0.1-0.75,0.1c-0.05,0-0.09-0.01-0.09-0.03
				c0.26-0.09,0.66-0.22,0.11-0.13c1.12-0.26,1.04-0.31,0.28-0.15c0.09-0.05,0.19-0.1,0.27-0.14c0.35-0.11,0.7-0.21,0.99-0.31
				c0.3-0.05,0.27,0,0.54-0.05c-0.21,0.09,0.93-0.13-0.16,0.16c-0.03,0.03-0.47,0.18,0.94-0.12c-0.56,0.19-1.08,0.36-1.65,0.56
				c0.13-0.01,0.2,0,0.27,0.01c-0.2,0.06-0.39,0.11-0.64,0.18c0.2-0.03,0.39-0.05,0.58-0.07c-0.32,0.11,0.12,0.06-1.15,0.37
				c-0.08,0.04-0.16,0.08-0.23,0.12c0.6-0.14,1.25-0.3,1.85-0.45c0.25-0.11,0.54-0.24,0.83-0.36c-0.17,0.01-0.33,0.02-0.49,0.02
				c0.42-0.14,0.58-0.23,1.47-0.54c0.54-0.16,1.08-0.32,1.63-0.48c-0.11,0-0.16-0.02-0.22-0.04c-0.22,0.02-0.49,0.06-0.7,0.08
				c0.86-0.29,1.61-0.59,1.12-0.58c0.32-0.09,0.63-0.18,0.9-0.25C1001.03,763.33,1000.06,763.57,1001.12,763.22z"/>
			<path class="st4" d="M1012.57,760.61c0.52-0.09,0.25,0.06-0.23,0.2C1011.78,760.89,1011.89,760.83,1012.57,760.61z"/>
			<path class="st4" d="M1011.88,761.05c0.55-0.09,0.64-0.06,0.17,0.07C1011.22,761.33,1011.27,761.27,1011.88,761.05z"/>
			<path class="st4" d="M1011.95,761.16c1.27-0.27,0.45-0.03-0.16,0.16C1011.84,761.27,1011.86,761.22,1011.95,761.16z"/>
			<path class="st4" d="M1011.88,761.34c0.48-0.05,0.58-0.01-0.02,0.16c-0.22,0.04-1.04,0.22-0.53,0.06
				C1011.5,761.49,1011.72,761.41,1011.88,761.34z"/>
			<path class="st4" d="M1011.4,761.74c0.46-0.07,0.83-0.1-0.05,0.1C1011.54,761.78,1010.8,761.95,1011.4,761.74z"/>
			<path class="st4" d="M1010.62,762.36c0.62-0.08,0.98-0.08-0.02,0.16c-0.38,0.06-0.37,0.02-0.66,0.05
				c0.05-0.03,0.09-0.05,0.14-0.07C1010.27,762.46,1010.44,762.41,1010.62,762.36z"/>
			<path class="st4" d="M986.39,769.08c0.64-0.09-1.14,0.32-0.32,0.17c-0.11,0.1,0.23,0.11,0.42,0.15
				c-0.09,0.05-0.15,0.08-0.23,0.12c-0.37,0.12-0.74,0.23-1.1,0.34c-0.11,0.07,0.84-0.12,1.47-0.25c-0.06,0.03-0.13,0.07-0.19,0.1
				c-0.03,0.02-0.06,0.03-0.09,0.05c0.2-0.01,0.75-0.11-0.07,0.18c0.14-0.01,0.23-0.01,0.31-0.01c0.5-0.03-0.18,0.23,0.37,0.17
				c0.29,0,0.54,0.01,0.83,0.01c-0.79,0.22-1.6,0.44-2.4,0.66c-0.43,0.04-1.04,0.13-1.14,0.09c-0.08-0.08-0.67,0-0.33-0.19
				c-1.35,0.32,1.16-0.39-0.66,0.05c0.22-0.08,0.75-0.26,0.37-0.19c-1.18,0.31-1.12,0.22-0.53,0.05c0.25-0.06,0.4-0.1,0.59-0.16
				c0-0.01,0.16-0.07-0.13-0.01c-0.99,0.26-0.7,0.14-1.16,0.24c0.28-0.1-0.07-0.04-0.53,0.06c-0.38,0.02,2.11-0.71-0.08-0.19
				c-0.08-0.04,1.2-0.44-0.2-0.11c-1.31,0.34-0.5,0.06-1.75,0.39c-0.31-0.11,2.93-0.86,5.35-1.54
				C985.55,769.21,985.97,769.14,986.39,769.08z"/>
			<path class="st4" d="M999.06,767.66c0.77-0.2,0.67-0.14,0.95-0.19c0.41-0.09,0.76-0.17,1.21-0.26c-0.27,0.11-0.56,0.23-0.78,0.33
				c-0.38,0.09-0.71,0.17-1.03,0.25c-0.48,0.11-0.84,0.19-1.27,0.29c-0.4,0.05-0.81,0.12-1.15,0.16l0.04-0.02
				c-0.26,0.03-0.12-0.05,0.33-0.17c0.37-0.1,0.8-0.22,1.17-0.32C998.73,767.7,998.92,767.68,999.06,767.66z"/>
			<path class="st4" d="M988.33,770.4c0.59-0.12,0.31-0.01,1.25-0.21c0.36-0.06,0.71-0.13,1.07-0.19c-0.33,0.1-0.67,0.2-0.95,0.28
				c-0.49,0.12-0.87,0.21-1.31,0.31c0.1-0.1-1.73,0.29-0.61-0.05C987.97,770.5,988.15,770.45,988.33,770.4z"/>
			<path class="st2" d="M998.93,762c-0.13,0.08-0.2,0.15-0.28,0.22c-0.82,0.2-1.58,0.38-2.34,0.56c0.03-0.02,0.06-0.03,0.09-0.05
				c0.48-0.16,0.97-0.32,1.5-0.49C998.22,762.17,998.61,762.08,998.93,762z"/>
			<path class="st5" d="M1004.09,760.56c1.5-0.34,1.42-0.2,1.37-0.13c-0.31,0.11-0.64,0.24-1.01,0.37c0.17-0.01,0.33-0.02,0.5-0.03
				c-0.19,0.08-0.78,0.27-1.45,0.47c0.09,0.01,1.56-0.34,1.19-0.19c-0.14,0.04-0.33,0.1-0.54,0.14c0.58-0.04-0.57,0.39-0.86,0.59
				c0.3-0.05,0.55-0.09,0.85-0.14c-2.19,0.78-1.39,0.85-2.39,1.31c0.44-0.09,0.06,0.03-0.59,0.25c-1.44,0.26,0.06-0.26-0.5-0.26
				c-0.08,0-0.17,0-0.31,0.01c-0.17,0.04-0.36,0.09-0.54,0.14c-0.34,0.07-0.64,0.13-0.94,0.2c-0.24,0.07-0.44,0.12-0.64,0.18
				c0.1,0,0.19-0.01-0.69,0.28c0.97-0.18-0.58,0.29,0.66,0.02c-0.54,0.14-1.13,0.3-1.71,0.45c-0.03,0-0.11,0.01-0.13,0.01
				c-0.04-0.04-0.04-0.09-0.03-0.14c0.03-0.02,0.06-0.03,0.1-0.05c0-0.03,0.05-0.07,0.05-0.1c0.03-0.02,0.06-0.03,0.1-0.05
				c0.09-0.05,0.18-0.1,0.28-0.15c0.03-0.02,0.06-0.03,0.09-0.05c0.04-0.04,0.02-0.06,0.01-0.08c0-0.02-0.04-0.03-0.03-0.04
				c0.2-0.09,0.44-0.19,0.64-0.27c0.04-0.02,0.07-0.04,0.1-0.05c-0.15-0.01-1.23,0.23-0.11-0.16c0.46-0.12,0.93-0.24,1.4-0.37
				c0.14-0.06,0.35-0.14,0.55-0.21c-0.37,0.09-0.68,0.16-0.99,0.23c-0.19,0.02-0.39,0.05-0.58,0.07c0-0.03-0.61,0.1-0.21-0.03
				c0.29-0.09,0.64-0.2,0.99-0.31c0.73-0.17,1.52-0.35,2.25-0.52c0.75-0.18,0.58-0.18,1.22-0.35c0.08-0.04,0.15-0.08,0.23-0.12
				c0.14-0.09,0.64-0.28,1.01-0.45c0.03-0.06-0.36-0.01,0.07-0.18c-0.21,0.03-0.42,0.06-0.63,0.1c0.04-0.02,0.07-0.04,0.1-0.05
				C1003.33,760.81,1003.71,760.69,1004.09,760.56z"/>
			<path class="st6" d="M992.54,765.42c-0.14,0.07-0.28,0.15-0.42,0.22c0.17-0.01,1.5-0.31,0.94-0.12c-0.06,0.05-0.75,0.21-1.13,0.3
				c-0.11,0.06-0.41,0.17,0.58-0.09c0.45-0.1,0.04,0.03,0.09,0.03c-2.48,0.7,1.6-0.27-0.57,0.38c0.16-0.02,0.36-0.05,0.58-0.09
				c0.2-0.03,0.39-0.05,0.53-0.06c-0.54,0.14-0.86,0.23-1.17,0.32c-0.75,0.33,0.55,0.14-0.95,0.65c0.77-0.17,0.31,0.01,1.38-0.21
				c-0.76,0.23-1.43,0.38-1.31,0.4c0.07,0.01-0.28,0.15,0.58-0.07c0.38-0.08,0.01,0.04,0.7-0.08c-0.03,0.02-0.06,0.03-0.09,0.05
				c-1.29,0.35-1.35,0.46-1.16,0.45c0.46-0.1,0.04,0.03,0.09,0.03c-0.22,0.08-0.38,0.15-0.59,0.23c0.57-0.02,0.32,0.19,0.54,0.24
				c-0.3,0.1-0.56,0.19-0.82,0.28c1.73-0.43,0.16,0.05,1.21-0.19c-0.05,0.04-0.06,0.08-0.06,0.11c0.61-0.14,0.27-0.01,1.26-0.21
				c-0.04,0.02-0.07,0.04-0.1,0.05c0.22-0.05,0.49-0.12,0.76-0.18c-0.37,0.15-0.73,0.29-1.15,0.45c-0.18,0.05-0.37,0.1-0.54,0.14
				c-0.5,0.15,0.46-0.07-0.64,0.26c-0.29,0.12,1.18-0.25-0.24,0.2c-0.22,0.1,1.57-0.36,0.75-0.1c-0.35,0.11-0.7,0.21-0.99,0.31
				c-0.13,0.07,1.03-0.2,0.43-0.01c-0.08,0.04-0.16,0.08-0.23,0.12c-0.5,0.09-1.65,0.4-1.43,0.3c0.24-0.1,0.44-0.19,0.69-0.28
				c-0.05-0.02-1.43,0.32-1.03,0.17c0.13-0.05,0.32-0.12,0.5-0.19c-0.17,0.03-0.29,0.05-0.41,0.06c0.06-0.03,0.13-0.07,0.19-0.1
				c0.17-0.09-0.84,0.13-1.28,0.16c-0.54,0.13-1.09,0.26-1.58,0.38c0.06-0.03,0.13-0.07,0.19-0.1c-0.63,0.13-1.58,0.32-1.47,0.25
				c0.36-0.11,0.73-0.23,1.1-0.34c0.08-0.04,0.14-0.08,0.23-0.12c-0.2-0.03-0.53-0.04-0.42-0.15c-0.82,0.15,0.96-0.26,0.32-0.17
				c0.32-0.1,0.68-0.22,1.04-0.33c0.36-0.13-0.78,0.13-0.7,0.08c0.73-0.21,1.48-0.43,2.21-0.65c-0.41,0.08-0.88,0.17-1.29,0.25
				c0.33-0.11,0.7-0.23,1.09-0.36c-0.88,0.21-1.06,0.2-1.88,0.4c0.01,0,0.03-0.01,0.05-0.02c0.31-0.1,0.67-0.21,1.03-0.33
				c-0.47,0.08-1.29,0.24-1.47,0.25c0.34-0.15,0.4-0.23,0.16-0.22c0.11-0.12,0.27-0.25,0.44-0.38c-0.4,0.01,0.84-0.39,1.2-0.55
				c0.16-0.08,0.31-0.16,0.47-0.24c0.54-0.16,1.08-0.32,1.63-0.48c0.47-0.15-0.35,0.03-0.53,0.06c0.15-0.06,0.35-0.14,0.5-0.2
				c-0.21,0.02-1.63,0.41-1.38,0.29c0.08-0.03,0.22-0.07,0.3-0.1c-0.01-0.04-0.02-0.08-0.02-0.13c0.11-0.06,0.22-0.12,0.33-0.17
				c0.52-0.13,1.09-0.28,1.67-0.43c0.26-0.09,0.52-0.18,0.77-0.26c-0.52,0.06,0.13-0.25,0.08-0.33c-0.29-0.03,1.11-0.5,0.4-0.43
				c0.13-0.07,0.89-0.24,0.72-0.24c-0.45,0.02,0.1-0.27,1.81-0.79c0.33,0.09-0.93,0.56-0.15,0.52c-0.67,0.17-0.52,0.16-1.22,0.33
				c-0.37,0.15,0.07,0.05,0.13,0.09c-0.19,0.05-0.34,0.1-0.59,0.16c-0.11,0.06-0.35,0.15,0.63-0.1c0.3-0.06,0.13-0.01,0.13,0.01
				C993.45,764.99,992.98,765.21,992.54,765.42z"/>
			<path class="st2" d="M1000.21,762.65c-0.05,0.05-0.09,0.11-0.19,0.18c0.36-0.09,0.77-0.2,1.13-0.3c-0.1,0.05-0.18,0.1-0.28,0.15
				c-0.3,0.06-0.65,0.14-0.94,0.2c-0.26,0.09-0.52,0.18-0.77,0.27c-0.38,0.09-0.71,0.17-1.09,0.26c0.03-0.02,0.06-0.03,0.09-0.05
				c0.31-0.1,0.57-0.19,0.82-0.28c0.32-0.12,0.64-0.24,1.01-0.37L1000.21,762.65z"/>
			<path class="st2" d="M989.23,766.41c0.01,0.04,0.01,0.08,0.02,0.13c-0.08,0.03-0.22,0.07-0.3,0.1c-0.38,0.09-0.71,0.17-1.09,0.26
				c-0.11,0-0.57,0.08-0.44,0.02c0.51-0.15,1.03-0.29,1.54-0.44C989.01,766.46,989.12,766.44,989.23,766.41z"/>
			<path class="st2" d="M1002.61,763.91c0.22-0.02,1.32-0.27,0.39,0.01c-0.66,0.16-0.73,0.14-1.3,0.23
				C1002.01,764.07,1002.31,763.99,1002.61,763.91z"/>
			<path class="st2" d="M1004,764.06c0.21-0.03,1.02-0.23,0.62-0.09c-0.31,0.09-0.63,0.18-1.22,0.33c-0.27,0.08-0.59,0.17-0.9,0.25
				c-0.11,0-1.04,0.24-0.85,0.15c0.19-0.08,0.45-0.19,0.69-0.28C1002.89,764.3,1003.44,764.18,1004,764.06z"/>
			<path class="st2" d="M986.47,768.36c0.18,0,1-0.17,1.47-0.25c-0.36,0.11-0.73,0.23-1.03,0.33c-0.21,0.05-0.35,0.08-0.51,0.11
				c-0.25,0.04-0.55,0.09-0.8,0.13c0.13-0.07,0.25-0.13,0.38-0.2C986.3,768.4,986.41,768.37,986.47,768.36z"/>
			<path class="st2" d="M995.64,766.3c-0.44,0.06-0.89,0.11,0.37-0.19C995.88,766.17,995.76,766.23,995.64,766.3z"/>
			<path class="st2" d="M1008.25,763.23c-0.36,0.14-0.7,0.28-1.05,0.41c0.3-0.06,0.65-0.14,0.94-0.2c-0.68,0.23-0.41,0.2,0.17,0.06
				c0.03,0.03,0.05,0.07,0.07,0.1c-0.29,0.08-0.53,0.14-0.81,0.21c-0.13,0.07-0.28,0.15-0.42,0.22c-0.1,0.05-0.18,0.1-0.28,0.15
				c0.24,0.01,0.54,0.01,0.83,0.01c-0.78,0.22-1.49,0.43-2.22,0.64c-0.15,0.05-0.23,0.08-0.37,0.12c-0.28,0.07-0.52,0.13-0.81,0.21
				c-0.64,0.15-0.78,0.15-1.58,0.38c-0.63,0.16-1.31,0.33-1.94,0.49c-0.02,0-0.11,0.01-0.13,0.01c0.79-0.25,1.05-0.37,1.37-0.5
				c-1.4,0.33-0.23-0.03-1.02,0.09c0.08-0.04,0.16-0.08,0.23-0.12c0.19-0.1,0.38-0.2,0.56-0.29c0.28-0.1,0.86-0.28,0.06-0.11
				c1.45-0.44-1.85,0.31,0.92-0.4c0.29-0.11,0.57-0.21,0.91-0.32c2.28-0.49,0.85,0.02,0.85,0.14c1.47-0.38,0.63-0.1,1.31-0.24
				c0.47-0.12,0.96-0.25,1.44-0.39c-0.28,0.05-0.61,0.12-0.9,0.18c-0.42,0.05,0.59-0.29,0.25-0.28c0.34-0.15,0.63-0.28,0.97-0.43
				C1007.85,763.31,1008.07,763.27,1008.25,763.23z"/>
			<path class="st2" d="M986.73,768.82c-0.07,0.05,1.07-0.2,0.7-0.08c-0.36,0.11-0.73,0.23-1.04,0.33c-0.42,0.06-0.84,0.13-1.2,0.18
				c0.22-0.07,0.45-0.14,0.67-0.21c0.23-0.06,0.41-0.11,0.59-0.16C986.51,768.88,986.62,768.85,986.73,768.82z"/>
			<path class="st2" d="M986.26,769.51c-0.37,0.12-0.74,0.23-1.1,0.34c-0.11,0.07,0.84-0.12,1.47-0.25
				c-0.63,0.13-1.58,0.32-1.47,0.25C985.52,769.75,985.89,769.63,986.26,769.51z"/>
			<path class="st2" d="M995.28,767.43c0.3-0.05,0.84-0.16,0.76-0.09c-0.38,0.09-0.71,0.17-1.09,0.26
				C995.06,767.55,995.18,767.49,995.28,767.43z"/>
			<path class="st2" d="M1010.05,763.99c0.07,0.01,0.14,0.02,0.21,0.03c-0.1,0.04-0.26,0.09-0.36,0.12c0.5-0.08,0.14,0.08,0.79-0.05
				c-0.06,0.08-0.11,0.15-0.16,0.22c-0.06,0.08-0.11,0.15-0.11,0.21c0.41-0.08,0.88-0.17,1.34-0.26c-0.13,0.07-0.24,0.13-0.37,0.19
				c-0.49,0.11-0.99,0.21-1.44,0.31c0.38-0.14-0.29,0,0.19-0.18c-0.44,0.1-0.87,0.21-1.31,0.31c-0.33,0.05-0.65,0.09-0.98,0.14
				c-0.08-0.04-0.02-0.1-0.84,0.07c0.05-0.05,0.15-0.12,0.19-0.18c0.46-0.16,0.91-0.32,1.38-0.49c-0.22,0.05-0.38,0.09-0.54,0.13
				c-0.15,0.03-0.3,0.06-0.51,0.11c0.05-0.03,0.1-0.05,0.15-0.08c0.29-0.09,0.54-0.17,0.78-0.25
				C1009.02,764.24,1009.5,764.13,1010.05,763.99z"/>
			<path class="st2" d="M986.28,769.93c0.82-0.29,0.27-0.19,0.07-0.18C986.56,769.74,987.1,769.64,986.28,769.93z"/>
			<path class="st2" d="M1000.45,767.54c0.18-0.02,0.34-0.04,0.53-0.06c-0.65,0.17-1.29,0.34-1.94,0.51
				c0.13-0.07,0.25-0.13,0.38-0.2C999.74,767.71,1000.07,767.63,1000.45,767.54z"/>
			<path class="st2" d="M992.67,769.53c0.31-0.04,0.63-0.08,0.94-0.12c-0.45,0.11-0.9,0.22-1.35,0.34
				c-0.04-0.03-0.07-0.05-0.11-0.08C992.32,769.62,992.5,769.58,992.67,769.53z"/>
			<path class="st3" d="M989.83,766.54c0.18-0.03,1-0.22,0.53-0.06c-0.54,0.16-1.09,0.32-1.63,0.48c-0.27,0.05-0.58,0.1-0.85,0.15
				c0.03-0.02,0.06-0.03,0.1-0.05C988.56,766.9,989.2,766.72,989.83,766.54z"/>
			<path class="st3" d="M987.65,768.42c0.41-0.08,0.88-0.17,1.29-0.25c-0.74,0.22-1.48,0.44-2.21,0.65
				c-0.11,0.03-0.22,0.05-0.27,0.07c0.03-0.06,0.07-0.13,0.06-0.18C986.94,768.59,987.27,768.51,987.65,768.42z"/>
			<path class="st5" d="M998.65,762.23c-0.44,0.14,0.34-0.04,0.53-0.06c-0.15,0.08-0.31,0.16-0.47,0.24
				c-0.49,0.12-1.03,0.25-1.58,0.38c-0.46,0.12-0.9,0.22-1.35,0.34c-0.09,0-0.17,0-0.26,0c0.23-0.1,0.5-0.22,0.79-0.33
				C997.07,762.61,997.83,762.42,998.65,762.23z"/>
			<path class="st5" d="M994.27,763.7l-0.04,0.02c-0.28,0.1,0.11,0.08-1.09,0.36c-0.2,0.03-0.39,0.05-0.58,0.08
				c0.21-0.06,0.43-0.13,0.68-0.2C993.56,763.87,993.94,763.78,994.27,763.7z"/>
			<path class="st5" d="M996.79,764.3c-0.27,0.08-0.48,0.14-0.69,0.21c-1.23,0.3-0.65,0.09-0.06-0.11
				C996.27,764.37,996.5,764.35,996.79,764.3z"/>
			<path class="st5" d="M997.41,764.27c-0.13,0.07-0.2,0.11,0.21,0.04c-0.22,0.08-0.44,0.17-0.6,0.24c-0.27,0.07-0.54,0.13-0.82,0.2
				c-0.24,0.02-0.1-0.07-0.84,0.07c0.21-0.08,0.41-0.15,0.56-0.21C996.43,764.49,996.9,764.38,997.41,764.27z"/>
			<path class="st5" d="M988.95,766.63c-0.25,0.11,1.17-0.27,1.38-0.29c-0.14,0.06-0.35,0.14-0.5,0.2
				c-0.63,0.18-1.27,0.36-1.85,0.52c-0.28,0.04-0.21,0-0.58,0.07c0.12-0.06,0.24-0.13,0.37-0.19c0.03-0.02,0.06-0.03,0.09-0.05
				C988.24,766.8,988.57,766.73,988.95,766.63z"/>
			<path class="st5" d="M987.65,768.42c-0.38,0.09-0.71,0.17-1.14,0.29c-0.04-0.03-0.08-0.05-0.11-0.08
				c0.11-0.04,0.28-0.1,0.46-0.16c0.82-0.2,1-0.19,1.88-0.4C988.35,768.19,987.97,768.31,987.65,768.42z"/>
			<path class="st5" d="M1000.39,766.91c0.25-0.04,0.5-0.08,0.8-0.13c0.06,0.02-0.48,0.17-0.78,0.25c-0.27,0.05-0.58,0.1-0.85,0.15
				c-0.63,0.16-1.31,0.33-1.95,0.5c0.11-0.06,0.22-0.12,0.33-0.17c0.56-0.17,1.31-0.34,2.09-0.57
				C1000.13,766.94,1000.23,766.93,1000.39,766.91z"/>
			<path class="st5" d="M1010.15,764.6c-0.49,0.18,0.19,0.04-0.19,0.18c0.45-0.1,0.95-0.2,1.44-0.31c-0.02,0.01-0.03,0.02-0.05,0.03
				c-0.91,0.29-0.23,0.14-0.37,0.19c-0.8,0.19-0.42,0.14-1,0.29c-0.47,0.13-0.94,0.25-1.4,0.37c-0.04,0.01-0.13,0.02-0.22,0.04
				c0.07-0.05,0.08-0.09,0.15-0.14c0.04-0.05,0.46-0.2-0.71,0.06l0.04-0.02c0.36-0.13,0.66-0.24,0.97-0.35l0.04-0.02
				C1009.28,764.81,1009.71,764.71,1010.15,764.6z"/>
			<path class="st5" d="M990.23,769.57c0.03,0,0.1-0.01,0.17-0.01c-0.22,0.12-0.67,0.29,0.71,0c-0.08,0.04-0.15,0.08-0.23,0.12
				c-0.65,0.16-1.25,0.3-1.85,0.45c-0.22,0.04-0.42,0.07-0.58,0.09c-0.12-0.05-0.47-0.03-0.29-0.15
				C988.84,769.89,989.53,769.73,990.23,769.57z"/>
			<path class="st6" d="M1007.83,765.29l-0.04,0.02c-0.32,0.1-0.68,0.22-1.04,0.33c-0.2,0.01-0.47,0.04-0.67,0.06
				c0.19-0.05,0.38-0.11,0.59-0.17C1007.06,765.45,1007.44,765.37,1007.83,765.29z"/>
			<path class="st6" d="M998.92,767.45c-0.15,0.08-0.28,0.15-0.43,0.22c-0.69,0.12-1.11,0.17-0.06-0.11
				C998.76,767.49,998.87,767.46,998.92,767.45z"/>
			<path class="st6" d="M1006.23,765.99c0.63-0.13,0.22,0.01-0.05,0.1c0.1,0,0.2-0.01,0.3-0.02c-0.08,0.03-0.22,0.07-0.36,0.11
				c-0.43,0.1-0.87,0.21-1.31,0.31c0.3-0.1,0.56-0.19,0.82-0.28c-0.13,0.02-0.27,0.05-0.46,0.09
				C1005.53,766.2,1005.87,766.1,1006.23,765.99z"/>
			<path class="st6" d="M1010.72,764.96c0.92-0.23,1.84-0.47,2.75-0.7c0.7-0.09-0.58,0.23-1.86,0.6c-0.27,0.05-0.58,0.1-0.85,0.15
				c-0.37,0.12-0.73,0.23-1.04,0.33c-0.11,0.03-0.22,0.05-0.27,0.07c0.34-0.16-0.89,0.13,0.92-0.41
				C1010.49,764.99,1010.61,764.98,1010.72,764.96z"/>
			<path class="st4" d="M1012.21,758.53c0.9-0.2,0.39-0.02,0.12,0.07c0.01,0.02-0.02,0.06-0.01,0.08c-0.8,0.19-1.43,0.32-0.75,0.1
				C1011.75,758.71,1011.97,758.62,1012.21,758.53z"/>
			<path class="st4" d="M997.14,762.35c0.24-0.03,0.47-0.06,0.75-0.1c-0.53,0.17-1.02,0.33-1.5,0.49c-0.5,0.11-0.72,0.15-0.94,0.19
				C995.58,762.84,996.06,762.66,997.14,762.35z"/>
			<path class="st2" d="M1002.91,763.6c0.02,0.01,0.1,0,0.18-0.02C1003.01,763.6,1002.93,763.61,1002.91,763.6z"/>
			<path class="st2" d="M996.29,765.59c0.14-0.03,0.29-0.06,0.49-0.11c-0.02,0.01-0.04,0.02-0.05,0.03c0.06,0.02,0.1,0.04,0.16,0.05
				c-0.15,0.11-0.36,0.23-0.51,0.35c-0.1,0.05-0.18,0.1-0.28,0.15c-0.25,0.04-0.55,0.09-0.8,0.13c-0.11,0.03-0.22,0.05-0.27,0.07
				c-0.03-0.01-0.01-0.04-0.04-0.06c0.22-0.08,0.38-0.15,0.6-0.24c0.46-0.15-0.36,0.03-0.53,0.06
				C995.43,765.89,995.87,765.73,996.29,765.59z"/>
			<path class="st2" d="M996.33,765.57l-0.04,0.02L996.33,765.57z"/>
			<path class="st3" d="M1009.44,765.41c0.06-0.01,0.17-0.04,0.27-0.07C1009.61,765.37,1009.5,765.4,1009.44,765.41z"/>
			<path class="st5" d="M1001.17,763.2c-0.02,0.01-0.03,0.02-0.05,0.03C1001.14,763.21,1001.15,763.21,1001.17,763.2z"/>
			<path class="st6" d="M991.02,769.15c0.28-0.02,1.05-0.24,1.25-0.21c-0.85,0.28-0.07,0.1-0.65,0.34c-0.46,0.1-0.81,0.18-1.22,0.27
				c-0.07,0.01-0.15,0.02-0.17,0.01C991.56,769.18,989.58,769.63,991.02,769.15z"/>
			<path class="st6" d="M990.79,769.2c0.04-0.01,0.13-0.02,0.23-0.05C990.92,769.17,990.83,769.19,990.79,769.2z"/>
			<path class="st6" d="M989.23,766.41c-0.11,0.03-0.22,0.05-0.27,0.07C989.01,766.46,989.12,766.44,989.23,766.41z"/>
			<path class="st6" d="M1006.75,765.64c0.23-0.05,0.48-0.1,0.67-0.13c-0.02,0.04-0.03,0.07-0.1,0.13c-0.34,0.1-0.62,0.18-0.95,0.28
				c-0.21,0.05-0.35,0.08-0.51,0.11C1005.52,766.01,1006.17,765.82,1006.75,765.64z"/>
			<path class="st2" d="M1003.09,763.58c-0.14,0.06,0.91-0.21,0.21,0.03c-0.14,0.06-0.35,0.14-0.5,0.2c-0.45,0.1-0.8,0.17-1.21,0.26
				c0.03-0.02,0.06-0.03,0.1-0.05c0.19-0.05,0.38-0.11,0.58-0.16c0.03-0.02,0.06-0.03,0.1-0.05
				C1002.58,763.74,1002.81,763.67,1003.09,763.58z"/>
		</g>
	</g>
</g>
<g>
	<g>
		<path class="st0" d="M944.31,771.15c0.84,0,1.85-0.47,1.31-1.42c-0.55-0.97-2.19-1.32-3.19-1.32c-0.84,0-1.85,0.47-1.31,1.42
			C941.67,770.8,943.31,771.15,944.31,771.15L944.31,771.15z"/>
	</g>
</g>
<g>
	<g>
		<path class="st0" d="M458.19,390.04c-18.51,11.35-34.97,25.43-40.75,47.2c-3.7,13.91-4.6,28.88-5.2,43.21
			c-0.65,15.44-0.35,30.91-0.35,46.36c0,30.86,0.65,61.68-4.19,92.27c-2.05,12.97-6.72,24.89-13.99,35.84
			c-3.28,4.94-6.93,9.64-10.9,14.05c-4.77,5.31-10.24,8.41-16.8,11.04c-6.3,2.52-12.45,5.32-18.7,7.96
			c-7.45,3.15-15.19,4.66-21.73-1.36c-7.85-7.22-5.63-22.48,1.71-29.25c4.6-4.24-0.74-9.51-5.3-5.3
			c-16.02,14.77-12.78,50.4,14.45,47.52c6.5-0.69,12.52-3.72,18.38-6.4c6.02-2.75,12.37-4.77,18.32-7.68
			c12.11-5.91,20.75-16.91,28-28c16.58-25.34,18.65-56.24,19.39-85.75c0.84-33.94-1.39-68.08,1-101.98
			c1.08-15.37,1.88-32.75,10.09-46.27c7.07-11.64,18.42-19.48,29.82-26.47C466.29,394.05,463.78,386.62,458.19,390.04L458.19,390.04
			z"/>
	</g>
</g>
<g>
	<g>
		<path class="st0" d="M365.38,453.61c-4.47,1.28-9.94,2.98-14.56,1.43c-5.73-1.92-7.75-8.77-8.13-14.18
			c-0.42-5.88,0.66-12.26,3.08-17.65c2.79-6.21,8.22-11.04,11.88-16.75c3.88-6.06,7.48-11.97,12.77-16.94
			c4.94-4.64,10.73-8.44,16.77-11.5c12.88-6.52,27.79-11.36,42.05-13.52c7.28-1.1,14.53-0.81,21.85-1.18
			c7.79-0.39,15.55-1.51,23.35-1.65c13.61-0.25,25.85,2.89,34.3,14.14c8.38,11.15,13.89,24.17,15.94,37.89
			c2.24,14.99,5.24,29.46,3.52,44.69c-1.7,15.04-6.03,30.38-11.77,44.37c-2.73,6.64-6.11,12.82-10.1,18.78
			c-1.73,2.58-3.42,5.17-4.73,8c-1.51,3.27-2.2,7.06-4.3,10.03c-3.26,4.62-9.45,7.2-13.78,10.72c-5.53,4.5-10.77,9.23-16.77,13.1
			c-3.81,2.46-8.22,5.35-12.84,5.82c-3.05,0.31-8.08-1.91-6.15-5.52c1.43-2.66,6.38-4.41,8.97-5.48c3.47-1.43,7.11-2.64,10.83-3.24
			c10.4-1.67,22.32,2.19,29.09,10.39c8.36,10.13,15.7,25.73,13.56,39.13c-1.01,6.31-4.17,12.03-6.29,18
			c-2.28,6.41-3.88,13.52-4.78,20.26c-0.84,6.29-0.58,13.14,3.63,18.25c3.38,4.11,8.58,6.17,13.65,7.23
			c11.88,2.5,23.06-0.13,32.59-7.49c12.51-9.66,22.34-21.43,32.74-33.21c11.3-12.8,22.61-25.66,32.13-39.88
			c1.53-2.29,0.87-6.96-2.87-5.99c-7.73,1.99-14.69,9.95-20,15.61c-6.55,6.99-11.91,14.97-17.11,22.98
			c-5.7,8.78-11.04,17.97-14.61,27.85c-1.37,3.77-2.74,7.8-3.14,11.81c-0.34,3.43-0.27,9.28,2.67,11.76
			c4.89,4.13,14.58-2.82,18.47-5.6c5.87-4.19,11.68-8.58,17.2-13.22c6.12-5.14,12.05-10.94,15.91-18.01
			c2.2-4.03,4.15-8.22,6.05-12.39c2.81-6.18,5.52-12.48,7.38-19.02c0.99-3.5,3.09-10.01-0.4-12.87c-2.75-2.26-6.44,0.25-7.61,3.03
			c-6.79,16.19-11.01,33.65-10.53,51.29c0.24,9.09,1.99,24.49,15.1,19.11c13.28-5.45,24.23-18.23,31.54-30.14
			c4.05-6.6,7.16-13.6,10.47-20.58c3.58-7.57,8.01-14.47,10.01-22.7c0.95-3.92-3.66-4.16-5.99-2.87c-5.27,2.91-6.39,7.98-8.05,13.29
			c-1.88,6.04-4.85,11.6-6.53,17.73c-2.1,7.66-5.61,16.03-4.3,24.12c1.58,9.8,11.75,11.3,19.81,8.14
			c10.39-4.07,17.76-13.94,23.82-22.86c4.07-5.99,7.29-12.27,10.26-18.88c1.84-4.1,3.64-8.25,6.13-12
			c2.24-3.37,4.57-6.49,6.29-10.18c-2.82,0.04-5.63,0.08-8.45,0.12c-0.84,8.69-2.88,17.17-4.92,25.63
			c-2.14,8.89-4.11,17.82-6.54,26.64c-4.82,17.46-10.77,34.61-17.78,51.32c-6.71,15.98-14.44,31.53-22.98,46.62
			c-8.09,14.28-17.05,28.28-28.18,40.41c-5.07,5.53-10.58,11.4-17.24,15.04c-2.99,1.63-6.63,3.2-10.11,2.88
			c-4.76-0.43-3.48-4.65-2.47-8.07c2.21-7.52,7.37-14.08,11.84-20.38c5.15-7.27,10.32-14.47,15.86-21.45
			c11.59-14.58,23.57-28.89,35.41-43.28c5.92-7.19,11.89-14.44,18.51-21c6.09-6.05,12.84-11.38,19.2-17.13
			c14.28-12.92,24.51-29.01,35.18-44.85c4.59-6.81,9.51-13.37,14.26-20.07c3.88-5.47,8.5-13.18,15.29-15.23
			c-1.35-0.18-2.69-0.36-4.04-0.54c3.88,4.54-0.13,12.29-1.57,17.14c-2.25,7.55-3.59,15.39-5.48,23.04
			c-1.75,7.12-4.22,13.83-6.43,20.79c-1.77,5.55-3.14,11.42-0.9,17.03c0.93,2.32,4.09,1.87,5.73,0.79
			c4.82-3.16,8.05-8.1,11.11-12.86c3.87-6,8.03-11.83,12.23-17.61c4.72-6.51,9.55-12.97,14.69-19.15c2.29-2.75,4.63-5.45,7.01-8.12
			c1.16-1.29,5.03-7.12,6.66-7.51c-1.15-1.63-2.3-3.25-3.45-4.88c-2.86,10.49-7.52,20.46-10.57,30.91
			c-1.63,5.58-7.68,22.7,1.23,25.54c1.81,0.58,4.09,0.08,5.36-1.46c7.87-9.54,15.77-19.06,23.54-28.67
			c5.1-6.3,9.68-16.18,17.94-18.63c-1.63-0.79-3.26-1.57-4.9-2.36c0.73,3.72-0.69,7.47-1.52,11.08c-0.95,4.18-1.94,8.34-3.02,12.49
			c-2.1,8.05-4.18,16.12-4.88,24.44c-0.37,4.36-1.03,10.53,1.98,14.21c3.24,3.96,8.54,2.17,12.25-0.1
			c7.04-4.3,13.22-11.06,18.79-17.04c5.81-6.23,11.6-11.76,18.32-17.03c7.95-6.23,23-13.36,21.62-25.45
			c-0.17-1.45-1.26-2.47-2.68-2.68c-8.56-1.23-13.5,9.14-16.07,15.58c-3.12,7.84-5.07,16.13-6.84,24.36
			c-1.08,5.07-2.74,10.48-1.46,15.66c1.53,6.22,7.48,9.36,13.53,7.5c6.58-2.02,12.56-8.05,17.32-12.82
			c5.54-5.56,10.47-11.83,14.59-18.51c3.94-6.38,7.26-13.22,9.68-20.32c2.03-5.98,4.85-13.44,4.17-19.85
			c-0.55-5.13-4.74-12.01-10.72-11.05c-5.38,0.87-9.75,7.45-12.31,11.75c-5.71,9.6-9.73,26.25,2.81,32.72
			c11.12,5.74,22.35-6.79,28.71-14.26c3.12-3.66,6.19-7.37,9.4-10.95c1.4-1.55,2.81-3.09,4.28-4.57c0.69-0.7,3.92-4.67,5.02-4.61
			c3.99,0.2-0.65,13.42-1.26,15.35c-2.06,6.53-3.49,13-4.83,19.73c-0.98,4.91-1.8,9.82-3.29,14.6c-1.36,4.36-1.72,8.5-0.84,13.01
			c0.6,3.06,3.74,3.19,6.01,1.78c10.83-6.71,15.49-18.94,21.3-29.65c5.25-9.68,9.67-23.25,19.77-28.91
			c-1.44,0.21-2.88,0.41-4.32,0.62c3.78,2.54,1.62,10.94,0.96,14.54c-0.88,4.76-2.06,9.43-2.71,14.23
			c-0.66,4.93-1.12,11.37,2.86,15.16c4.87,4.64,11.77,2.02,16.42-1.42c13.87-10.24,25.05-23.97,38.13-35.15
			c6.59-5.63,19.29-14.86,17.48-24.96c-0.43-2.38-2.76-3.2-4.9-2.36c-8.62,3.38-12.45,13.17-17.53,20.2
			c-6.66,9.22-14.05,20.82-14.51,32.55c-0.18,4.59,0.49,10.21,5.13,12.42c4.74,2.25,11.43-1.57,15.47-3.88
			c4.99-2.84,9.46-6.88,14.02-10.37c5.38-4.12,10.82-8.42,15.39-13.44c8.03-8.81,14.24-18.98,19.92-29.41
			c6.21-11.38,12.35-22.79,18.51-34.19c13.04-24.12,25.33-48.58,35.76-73.95c5.86-14.25,11.97-28.43,16.91-43.04
			c2.41-7.12,4.42-14.37,6.25-21.66c1.87-7.42,5.23-14.85,3.58-22.58c-0.32-1.5-1.15-2.38-2.68-2.68
			c-8.62-1.67-16.05,4.44-21.66,10.25c-7.16,7.41-13.76,15.45-19.89,23.73c-12.98,17.55-22.91,36.88-31.55,56.87
			c-8.91,20.62-16.33,42.01-20.74,64.07c-4.06,20.37-6.53,43.34-1.08,63.68c2.68,10.01,7.69,19.08,14.72,26.71
			c8.61,9.34,19.59,15.97,29.67,23.54c4.01,3.01,10.98-4.14,7.07-7.07c-15.1-11.34-32.07-21.14-39.99-39.2
			c-7.61-17.37-6.31-38.28-3.73-56.62c2.86-20.37,8.77-40.17,16.17-59.32c7.27-18.82,15.63-37.47,26.35-54.59
			c5.83-9.32,12.31-18.24,19.43-26.61c4.84-5.69,13.12-18.33,21.79-16.66c-0.89-0.89-1.78-1.78-2.68-2.68
			c1.21,5.67-1.31,11.1-2.62,16.62c-1.49,6.25-3.17,12.46-5.08,18.6c-3.54,11.34-8,22.4-12.52,33.38
			c-8.89,21.63-18.14,42.97-28.79,63.8c-10.08,19.71-20.7,39.2-31.43,58.56c-5.03,9.08-10.48,18.11-17.58,25.74
			c-3.84,4.13-8.3,7.71-12.76,11.13c-4.1,3.14-8.27,6.85-12.65,9.56c-1.23,0.76-6.24,3.69-7.75,3.35c-3.27-0.74-2.16-7.54-1.57-9.96
			c1.45-5.93,4.24-11.45,7.44-16.61c2.52-4.04,5.49-7.76,8-11.79c2.03-3.26,4.39-8.84,8.17-10.32c-1.63-0.79-3.26-1.57-4.9-2.36
			c0.67,3.74-4.98,8.16-7.38,10.42c-3.72,3.51-7.74,6.68-11.51,10.12c-5.73,5.22-11.18,10.74-16.78,16.1
			c-4.8,4.6-9.87,10.3-15.53,13.87c-10.14,6.39-5.02-15.46-4.12-19.7c1.67-7.89,4.32-19.52-3.63-24.85
			c-1.28-0.86-3.19-0.02-4.32,0.62c-10.69,6-15.83,18.07-21.23,28.44c-5.18,9.93-9.95,23.99-19.84,30.12c2,0.59,4.01,1.19,6.01,1.78
			c-1.28-6.53,1.7-13.31,2.97-19.76c1.15-5.86,2.05-12.03,3.6-17.7c2-7.32,5.81-14.99,5.15-22.77c-0.3-3.58-2.14-6.91-5.86-7.88
			c-4.8-1.26-9.04,2.72-12.25,5.71c-8.68,8.09-14.97,18.72-24.04,26.32c-2.75,2.3-6.52,4.93-10.13,2.97
			c-5.83-3.15-5.54-10.66-3.69-15.96c0.79-2.28,1.88-4.43,3.18-6.46c0.52-0.81,3.02-5.13,4.07-5.09c-0.07,0,1.93,3.33,2.14,3.95
			c0.55,1.64,0.33,3.38,0.09,5.04c-0.45,3.06-1.43,6.13-2.32,9.09c-3.52,11.74-9.5,22.78-17.4,32.16
			c-3.55,4.22-7.51,8.16-11.83,11.6c-2.22,1.77-5.64,5.12-8.64,2.82c-2.4-1.84-1.73-5.7-1.34-8.23c1.04-6.73,2.77-13.64,4.68-20.16
			c1.16-3.98,2.45-7.98,4.21-11.73c0.71-1.52,1.66-2.85,2.47-4.3c0.12-0.21,0.56-0.74,0.53-0.67c0.33-0.8-0.07-0.13,0.32-0.07
			c-0.89-0.89-1.78-1.78-2.68-2.68c0.45,3.99-5.62,7.4-8.38,9.34c-4.37,3.08-8.6,6.33-12.78,9.67
			c-10.75,8.58-18.79,19.96-29.64,28.42c-3.96,3.08-4.61,2.63-4.81-2.22c-0.22-5.43,0.86-11.1,1.97-16.38
			c1.45-6.92,3.49-13.69,5.11-20.57c1.31-5.58,3.66-11.95,2.54-17.72c-0.49-2.51-2.69-3.01-4.9-2.36
			c-9.33,2.77-14.96,11.61-20.41,19.03c-7.9,10.76-16.88,20.82-25.37,31.12c1.79-0.49,3.57-0.97,5.36-1.46
			c-0.88-0.28-0.76-0.22-0.98-1.54c-0.3-1.78,0.03-3.68,0.31-5.45c0.77-4.93,2.24-9.74,3.78-14.48c2.79-8.62,6.59-17,8.97-25.74
			c0.63-2.3-0.22-5.66-3.45-4.88c-6.48,1.56-10.18,7.53-14.4,12.3C781.09,607,775.9,613.42,770.9,620
			c-5.17,6.8-10.14,13.75-15,20.78c-3.27,4.74-6.23,11.53-11.12,14.74c1.91,0.26,3.82,0.53,5.73,0.79
			c-2.26-5.66,1.66-12.87,3.51-18.16c2.82-8.11,4.67-16.61,6.58-24.97c1.56-6.85,3.68-13.46,5.37-20.26
			c1.43-5.73,1.82-11.53-2.23-16.27c-1.01-1.19-2.75-0.93-4.04-0.54c-6.66,2-11.63,7.62-15.84,12.86
			c-4.69,5.84-8.94,12.1-13.33,18.18c-11.08,15.32-20.27,32.16-33.49,45.84c-6.78,7.02-14.53,12.98-21.7,19.57
			c-7.49,6.88-14.08,14.69-20.57,22.5c-13.07,15.74-26.17,31.51-38.91,47.53c-6.01,7.56-11.59,15.4-17.16,23.28
			c-4.82,6.81-9.84,14.01-12.09,22.15c-1.73,6.26-2.46,13.87,5.16,16.03c7.16,2.03,15.15-1.59,21.1-5.34
			c14.33-9.04,25.7-24.36,35.04-38.19c10.23-15.15,18.92-31.41,26.9-47.83c9.79-20.13,17.94-41.07,24.42-62.5
			c3.19-10.56,5.88-21.24,8.37-31.99c2.48-10.69,5.45-21.31,6.5-32.26c0.59-6.1-6.81-3.37-8.45,0.12c-1.59,3.38-4.09,6.18-6.03,9.34
			c-1.89,3.07-3.45,6.37-4.96,9.65c-2.84,6.16-5.48,12.25-9.25,17.92c-5.05,7.59-13.27,21.3-23.9,20.75
			c-9.2-0.48-4.48-14-2.94-19.29c1.35-4.62,2.53-9.28,4.39-13.73c1.2-2.88,2.58-5.71,3.51-8.7c0.73-2.35,0.84-6.04,3.13-7.31
			c-2-0.96-3.99-1.91-5.99-2.87c-1.58,6.51-5.3,12.27-8.29,18.18c-2.78,5.5-5.06,11.21-8.08,16.6
			c-5.94,10.63-13.42,19.97-23.7,26.66c-2.1,1.37-5.31,4.23-7.44,1.86c-1.06-1.18-1.19-3.99-1.41-5.49
			c-0.69-4.71-0.8-9.53-0.57-14.28c0.68-14.1,4.37-27.78,9.82-40.75c-2.54,1.01-5.07,2.02-7.61,3.03c0.05,0.04,0.3-0.36,0.08,0.75
			c-0.24,1.18-0.34,2.37-0.63,3.55c-0.82,3.34-2.09,6.6-3.35,9.79c-2.56,6.47-5.44,12.84-8.61,19.04
			c-3.91,7.66-11.44,14.41-18.56,19.91c-3.24,2.5-6.53,4.94-9.81,7.38c-2.93,2.18-7.47,6.24-11.4,5.71c0.8,0.56,1.6,1.12,2.4,1.69
			c-3.77-6.55,0.19-14.89,2.91-21.21c3.25-7.55,7.52-14.61,12.01-21.48c4.12-6.3,8.27-12.71,13.28-18.35
			c2.37-2.67,4.9-5.2,7.55-7.59c1.82-1.64,5.19-5.78,7.55-6.39c-0.96-2-1.91-3.99-2.87-5.99c-9.7,14.49-21.34,27.38-32.79,40.47
			c-10.1,11.55-20.07,24.58-33.51,32.5c-8.07,4.75-25.35,4.69-31.07-3.96c-4.22-6.37-1-15.6,0.49-22.37
			c1.74-7.88,5.49-14.92,7.72-22.63c4.21-14.57-0.86-29.78-8.56-42.29c-7.15-11.61-16.43-18.57-30.22-19.93
			c-9.52-0.94-18.57,1.33-27.09,5.62c-6.86,3.45-16.82,10.84-12.52,19.78c5.47,11.37,19.97,5.18,27.81,0.53
			c5.52-3.27,10.57-7.18,15.46-11.31c5.82-4.91,12.76-8.72,18.22-13.98c5.53-5.33,6.46-12.43,10.29-18.73
			c4.1-6.75,8.44-13.09,11.71-20.32c6.73-14.86,11.52-31.67,13.75-47.82c2.35-16.98-0.64-32.97-3.13-49.71
			c-2.2-14.81-8.03-28.24-16.82-40.4c-8.78-12.14-21.59-16.77-36.27-16.98c-8.17-0.12-16.27,0.87-24.4,1.46
			c-8.21,0.59-16.42,0.12-24.59,1.28c-15.61,2.22-31.87,7.49-45.92,14.62c-14.18,7.2-24.93,17.19-33.33,30.64
			c-3.98,6.38-9.58,11.82-13.1,18.44c-2.92,5.5-4.59,11.8-5.06,18.01c-0.85,11.07,2.58,25.33,15.58,26.93
			c5.69,0.7,11.44-0.98,16.85-2.52C371.41,460.33,371.64,451.83,365.38,453.61L365.38,453.61z"/>
	</g>
</g>
<g>
	<g>
		<path class="st0" d="M1372.18,425.42c11.17,0.2,22.07-1.22,32.14-6.31c9.5-4.8,18.27-12.09,24.87-20.44
			c6.08-7.69,9.9-17.35,11.04-27.1c1.08-9.25-5.6-14.99-14.66-12.12c-8.49,2.68-14.8,10.47-19.92,17.34
			c-6.3,8.46-10.82,17.37-13.7,27.55c-7.52,26.58-13.07,52.69-13.15,80.43c-0.04,14.4,0.76,28.84-1.19,43.16
			c-1.85,13.58-2.45,27.61-5.2,41.03c-5,24.43-16.59,49.67-34.28,67.46c-7.84,7.88-17.35,15.5-29.15,14.36
			c-4.7-0.45-9.25-4.64-5.56-9.28c2.97-3.74,7.94-6.39,11.89-8.96c11.08-7.23,23.26-13.6,36.52-15.46
			c13.18-1.85,25.79,4.79,35.98,12.57c9.6,7.32,17.63,14.54,30.64,13.1c11.9-1.32,23.73-9.42,33.36-16.08
			c20.71-14.33,35.82-36.06,42.76-60.21c1.14-3.96-2.28-6.13-5.69-4c-6.75,4.21-8.13,11.71-11.59,18.35
			c-3.17,6.08-6.33,12.01-8.07,18.68c-2.34,8.97-4.49,20.68-0.33,29.44c5.54,11.7,19.34,6.71,27.67,1.3
			c13.43-8.73,25.87-20.08,37.11-31.4c7.01-7.06,13.67-14.56,18.85-23.09c3.53-5.81,9.02-11.77,8.9-18.92
			c-0.03-1.5-1.37-2.41-2.68-2.68c-11.96-2.43-16.65,19.09-20.78,26.5c-6.48,11.62-11.69,23.59-11.32,37.22
			c0.15,5.5,1.63,11.54,6.15,15.09c5.15,4.05,11.8,2.17,17.25-0.31c15.56-7.08,26.43-21.35,37.61-33.73
			c7.5-8.31,14.9-16.69,21.61-25.65c4.57-6.1,9.81-13.02,9.42-21.03c-0.1-2.05-2.08-2.72-3.77-2.66
			c-5.94,0.21-10.22,4.79-13.41,9.35c-3.91,5.59-7.71,11.44-11,17.41c-6.7,12.15-8.62,24.28-4.8,37.71
			c3.49,12.27,13.83,14.63,25.31,11.62c13.14-3.44,22.74-13.26,31.26-23.3c3.97-4.68-1.23-10.1-5.3-5.3
			c-6.16,7.25-12.79,15.01-21.78,18.75c-4.2,1.75-10.01,3.33-14.52,1.94c-3.74-1.15-5.42-4.65-6.45-8.14
			c-2.98-10.15-2.1-19.8,2.81-29.17c2.51-4.8,5.6-9.27,8.55-13.8c1.94-2.98,4.07-8.18,8.08-8.32c-1.26-0.89-2.51-1.77-3.77-2.66
			c0.25,4.99-4.51,10.18-7.31,13.93c-4.76,6.38-9.88,12.44-15.18,18.38c-9.52,10.67-18.74,22.69-30.15,31.43
			c-3.88,2.98-8.73,6.22-13.66,6.98c-4.68,0.72-7.03-3.64-7.77-7.66c-1.6-8.62,1-18.64,4.58-26.49c2.99-6.54,7.22-12.43,9.88-19.14
			c0.83-2.1,1.59-4.24,2.56-6.28c0.52-1.09,1.17-2.07,1.74-3.13c0.16-0.3,0.68-0.69,0.77-0.99c0.13-0.43-0.68,0.1-0.05,0.23
			c-0.89-0.89-1.78-1.78-2.68-2.68c0.05,2.67-3.22,6.16-4.62,8.26c-2.16,3.24-4.06,6.64-6.34,9.81
			c-5.5,7.65-12.28,14.36-19.08,20.86c-5.97,5.71-12.31,10.89-18.72,16.09c-5.39,4.37-11.55,10.18-18.49,11.84
			c-11.62,2.77-10.15-14.08-9.1-20.89c0.8-5.17,2.1-10.11,4.27-14.89c1.85-4.08,4.18-7.92,6.12-11.96c1.57-3.25,2.23-7.93,5.43-9.93
			c-1.9-1.33-3.79-2.67-5.69-4c-6.22,21.65-19.18,41.33-37.84,54.22c-8.22,5.68-18.7,13.32-28.88,14.33
			c-12,1.19-19.1-7.56-28.05-13.75c-9.86-6.82-20.9-12.53-33.19-12.34c-11.84,0.18-23.57,4.84-33.91,10.27
			c-9.01,4.73-19.48,10.4-26.43,18.02c-5.74,6.29-7.43,17.68,1.8,21.99c7.99,3.73,19.14,0.89,26.44-3.02
			c10.11-5.43,18.55-14.22,25.63-23.11c14.86-18.65,25.27-42.77,29.54-66.21c2.34-12.88,3.06-26.17,4.84-39.16
			c1.87-13.73,1.28-27.59,1.23-41.4c-0.06-14.5,0.82-28.79,3.45-43.06c2.29-12.42,5.62-24.71,9.05-36.86
			c3.16-11.2,8.5-21.18,16.22-29.9c2.61-2.95,6.36-7.37,10.59-7.88c6.24-0.76,4.54,6.03,3.68,9.86
			c-2.69,12.07-9.72,20.95-19.42,28.38c-10.51,8.06-22.44,11.05-35.56,10.82C1370.98,416.56,1366.53,425.32,1372.18,425.42
			L1372.18,425.42z"/>
	</g>
</g>
<g>
	<g>
		<path class="st0" d="M1491.82,515.63c-4.29,7.2-10.5,18.89,0.58,23.81c8.07,3.58,16.75-4.61,21.69-10.11
			c7.86-8.76,18.05-28.29-1.02-30.22c-4.67-0.47-9.15,8.2-3.43,8.78c3.39,0.34,6.43,1.13,5.73,5.04c-0.6,3.34-3.02,6.64-5.05,9.24
			c-2.21,2.84-4.99,5.82-8,7.78c-3.18,2.07-7.62,1.23-7.46-3.32c0.09-2.61,2.66-5.6,3.96-7.77
			C1502.16,513.26,1494.76,510.71,1491.82,515.63L1491.82,515.63z"/>
	</g>
</g>
</svg>
